<?xml version="1.0" encoding="utf-8"?>
<!-- Generator: Adobe Illustrator 16.0.0, SVG Export Plug-In . SVG Version: 6.00 Build 0)  -->
<!DOCTYPE svg PUBLIC "-//W3C//DTD SVG 1.1//EN" "http://www.w3.org/Graphics/SVG/1.1/DTD/svg11.dtd">
<svg version="1.1" id="Layer_1" xmlns="http://www.w3.org/2000/svg" xmlns:xlink="http://www.w3.org/1999/xlink" x="0px" y="0px"
	 width="28.444px" height="28.445px" viewBox="-2.722 -1.722 28.444 28.445"
	 style="enable-background:new -2.722 -1.722 28.444 28.445;" xml:space="preserve">
<style type="text/css">
<![CDATA[
	.st0{fill:#FF7C24;}
	.st1{fill:#330E01;}
	.st2{fill:#6D2E03;}
]]>
</style>
<path class="st0" d="M19.886,10.991c0-1.164-0.621-2.26-1.621-2.861L8.163,0.476C7.15-0.13,5.828-0.146,4.805,0.434
	c-1.044,0.59-1.692,1.702-1.692,2.903v18.319c0,1.197,0.646,2.31,1.691,2.902c0.5,0.282,1.068,0.433,1.646,0.433
	c0.604,0,1.196-0.164,1.713-0.474l10.099-7.654c1.004-0.6,1.627-1.695,1.627-2.862C19.886,13.469,19.886,11.521,19.886,10.991z"/>
<path class="st2" d="M18.265,8.128L8.162,0.475C7.152-0.13,5.828-0.146,4.805,0.434c-1.044,0.59-1.692,1.702-1.692,2.903v15.309
	c0,1.197,0.647,2.311,1.688,2.899c0.499,0.284,1.069,0.435,1.647,0.435c0.605,0,1.198-0.164,1.714-0.473l10.099-7.654
	c1.002-0.6,1.625-1.694,1.625-2.862C19.886,9.827,19.265,8.73,18.265,8.128z"/>
<path class="st1" d="M17.494,11.216L7.392,3.561C6.823,3.221,6.118,3.212,5.543,3.54S4.611,4.475,4.611,5.137v15.308
	c0,0.66,0.355,1.271,0.932,1.598C5.824,22.2,6.136,22.28,6.448,22.28c0.325,0,0.651-0.088,0.942-0.262l10.102-7.654
	c0.555-0.332,0.894-0.93,0.894-1.574S18.047,11.548,17.494,11.216z"/>
</svg>
