<?xml version="1.0" encoding="utf-8"?>
<!-- Generator: Adobe Illustrator 16.0.0, SVG Export Plug-In . SVG Version: 6.00 Build 0)  -->
<!DOCTYPE svg PUBLIC "-//W3C//DTD SVG 1.1//EN" "http://www.w3.org/Graphics/SVG/1.1/DTD/svg11.dtd">
<svg version="1.1" id="Layer_1" xmlns="http://www.w3.org/2000/svg" xmlns:xlink="http://www.w3.org/1999/xlink" x="0px" y="0px"
	 width="23px" height="25px" viewBox="0 0 23 25" style="enable-background:new 0 0 23 25;" xml:space="preserve">
<style type="text/css">
<![CDATA[
	.st0{fill:#FF6464;}
	.st1{fill:#CC0909;}
	.st2{fill:#300202;}
]]>
</style>
<g>
	<path class="st0" d="M18.084,7.658c0-0.539-0.141-1.073-0.405-1.545c-0.56-0.986-1.606-1.597-2.736-1.598l0,0h-0.001H8.059H8.058
		l0,0c-1.13,0-2.177,0.611-2.736,1.598C5.057,6.584,4.916,7.119,4.916,7.658c0,0.565,0,3.398,0,3.938
		c0,0.565,0.154,1.124,0.447,1.616l3.442,5.744c0.564,0.943,1.595,1.529,2.692,1.529h0.001H11.5h0.001
		c1.098,0,2.129-0.584,2.695-1.527l0.001-0.006l3.439-5.74c0.293-0.492,0.447-1.05,0.447-1.616
		C18.084,11.056,18.084,8.223,18.084,7.658z"/>
	<path class="st1" d="M17.677,6.11c-0.558-0.984-1.605-1.595-2.734-1.595H8.059c-1.13,0-2.178,0.611-2.737,1.598
		C5.057,6.584,4.916,7.119,4.916,7.658c0,0.565,0.154,1.124,0.447,1.615l3.442,5.745c0.564,0.945,1.597,1.529,2.695,1.529
		c1.098,0,2.129-0.584,2.695-1.527l3.442-5.749C18.219,8.302,18.233,7.089,17.677,6.11z"/>
	<path class="st2" d="M13.073,16.771l3.656-6.102c0.34-0.568,0.348-1.273,0.021-1.848c-0.326-0.576-0.936-0.932-1.598-0.932H7.845
		c-0.66,0-1.271,0.355-1.598,0.932C6.089,9.103,6.009,9.414,6.009,9.726c0,0.326,0.088,0.652,0.262,0.943l3.654,6.1
		c0.332,0.555,0.93,0.895,1.574,0.895S12.741,17.324,13.073,16.771z"/>
</g>
</svg>
