<?xml version="1.0" encoding="utf-8"?>
<!-- Generator: Adobe Illustrator 16.0.0, SVG Export Plug-In . SVG Version: 6.00 Build 0)  -->
<!DOCTYPE svg PUBLIC "-//W3C//DTD SVG 1.1//EN" "http://www.w3.org/Graphics/SVG/1.1/DTD/svg11.dtd">
<svg version="1.1" id="Layer_1" xmlns="http://www.w3.org/2000/svg" xmlns:xlink="http://www.w3.org/1999/xlink" x="0px" y="0px"
	 width="20.75px" height="20.75px" viewBox="-11.023 -0.746 20.75 20.75"
	 style="enable-background:new -11.023 -0.746 20.75 20.75;" xml:space="preserve">
<g>
	<path style="fill:#FA918D;" d="M6.314,7.861c0.213-0.387,0.338-0.818,0.338-1.274c0-0.073-0.016-0.143-0.021-0.214L6.628,4.817
		c0.008-0.077,0.023-0.152,0.023-0.23c0-0.502-0.145-0.978-0.398-1.39C6.15,3.023,6.033,2.855,5.882,2.705L5.591,2.414
		C5.445,2.267,5.271,2.151,5.088,2.05c-1.011-0.578-2.45-0.461-3.271,0.362L0.873,3.358l-1.517,1.504l-1.517-1.504l-0.945-0.947
		C-3.927,1.589-5.367,1.472-6.377,2.05C-6.56,2.151-6.732,2.268-6.879,2.414L-7.17,2.705c-0.152,0.152-0.27,0.321-0.374,0.497
		c-0.253,0.411-0.396,0.885-0.396,1.385c0,0.078,0.016,0.153,0.022,0.23l-0.001,1.556c-0.006,0.071-0.021,0.141-0.021,0.214
		c0,0.456,0.125,0.888,0.337,1.274c0.114,0.217,0.25,0.426,0.433,0.609l1.144,1.143l-1.132,1.133
		c-0.185,0.183-0.328,0.393-0.449,0.614c-0.013,0.024-0.027,0.048-0.04,0.072c-0.107,0.213-0.188,0.436-0.234,0.671
		c-0.006,0.029-0.007,0.059-0.012,0.089c-0.019,0.11-0.04,0.221-0.044,0.335l-0.002,2.203c0.004,0.129,0.026,0.255,0.048,0.38
		c0.003,0.017,0.003,0.033,0.006,0.051c0.047,0.241,0.13,0.47,0.24,0.687c0.01,0.021,0.021,0.039,0.033,0.06
		c0.119,0.221,0.26,0.429,0.442,0.608l0.29,0.292c0.485,0.487,1.173,0.767,1.887,0.767c0.535,0,1.055-0.158,1.486-0.441
		c0.146-0.094,0.281-0.201,0.402-0.322l2.461-2.44l2.462,2.44c0.121,0.121,0.256,0.229,0.402,0.322
		c0.43,0.283,0.95,0.441,1.485,0.441c0.714,0,1.401-0.279,1.887-0.767l0.29-0.292c0.182-0.18,0.322-0.388,0.441-0.608
		c0.012-0.021,0.022-0.04,0.033-0.061c0.109-0.216,0.193-0.444,0.24-0.686C6.6,15.143,6.6,15.126,6.603,15.109
		c0.021-0.125,0.043-0.251,0.048-0.38l-0.002-2.203c-0.005-0.114-0.026-0.225-0.044-0.335c-0.006-0.03-0.006-0.06-0.012-0.089
		c-0.047-0.235-0.128-0.458-0.234-0.671c-0.014-0.024-0.027-0.048-0.041-0.072c-0.121-0.222-0.264-0.432-0.449-0.614L4.738,9.613
		L5.88,8.47C6.064,8.287,6.2,8.078,6.314,7.861z"/>
	<path style="fill:#A32D29;" d="M3.73,8.611l2.132-2.132c0.509-0.503,0.79-1.175,0.79-1.892c0-0.716-0.279-1.385-0.779-1.88
		l-0.289-0.29C4.615,1.443,2.785,1.443,1.818,2.412l-2.454,2.458l-2.478-2.457c-0.951-0.951-2.813-0.952-3.765,0L-7.17,2.705
		C-8.206,3.743-8.206,5.432-7.169,6.47l2.144,2.143l-2.132,2.133c-0.51,0.502-0.791,1.174-0.791,1.892
		c0,0.716,0.279,1.385,0.778,1.878l0.29,0.291c0.485,0.487,1.173,0.767,1.887,0.767c0.711,0,1.397-0.278,1.88-0.762l2.453-2.458
		l2.479,2.457c0.475,0.476,1.16,0.749,1.881,0.749c0.722,0,1.408-0.273,1.883-0.748l0.292-0.292
		c1.036-1.037,1.036-2.725-0.001-3.764L3.73,8.611z"/>
	<path style="fill:#3F1212;" d="M2.316,9.628L5.16,6.785c0.316-0.313,0.492-0.732,0.492-1.18c0-0.447-0.176-0.865-0.488-1.174
		l-0.287-0.29c-0.629-0.63-1.729-0.629-2.352-0.004l-3.158,3.164l-3.188-3.162c-0.607-0.607-1.743-0.608-2.351,0L-6.462,4.43
		c-0.647,0.648-0.647,1.703,0,2.351l2.851,2.85l-2.844,2.845c-0.317,0.313-0.492,0.731-0.492,1.179c0,0.447,0.175,0.865,0.487,1.174
		l0.288,0.29c0.628,0.63,1.728,0.63,2.351,0.005l3.158-3.165l3.189,3.162c0.607,0.608,1.742,0.608,2.35-0.001l0.291-0.29
		c0.646-0.647,0.646-1.702,0-2.35L2.316,9.628z"/>
</g>
</svg>
