<?xml version="1.0" encoding="utf-8"?>
<!-- Generator: Adobe Illustrator 16.0.0, SVG Export Plug-In . SVG Version: 6.00 Build 0)  -->
<!DOCTYPE svg PUBLIC "-//W3C//DTD SVG 1.1//EN" "http://www.w3.org/Graphics/SVG/1.1/DTD/svg11.dtd">
<svg version="1.1" id="Layer_1" xmlns="http://www.w3.org/2000/svg" xmlns:xlink="http://www.w3.org/1999/xlink" x="0px" y="0px"
	 width="23px" height="25px" viewBox="0 0 23 25" enable-background="new 0 0 23 25" xml:space="preserve">
<path fill="#FA918D" d="M16.766,8.963l-0.147,0.229c-0.185,0.284-0.431,0.638-0.503,0.711l-4.278,4.248
	c-0.165,0.166-0.504,0.166-0.672-0.002L6.888,9.903C6.783,9.799,6.472,9.406,6.285,9.16l-0.15-0.197h-2.58l0.013,2.066l0.082,1.006
	c0.011,0.035,0.022,0.069,0.035,0.104c0.018,0.046,0.038,0.09,0.058,0.13c0.089,0.188,0.193,0.34,0.318,0.465l6.222,6.222
	c0.326,0.325,0.76,0.504,1.219,0.504c0.46,0,0.893-0.179,1.221-0.505l6.221-6.221c0.125-0.126,0.229-0.28,0.318-0.465l0.055-0.125
	c0.015-0.036,0.026-0.072,0.039-0.108l0.093-1.007V8.963H16.766z"/>
<path fill="#A32D29" d="M19.445,7.637c0-0.462-0.18-0.896-0.506-1.219L18.553,6.03c-0.65-0.653-1.789-0.651-2.438-0.002
	l-4.279,4.248c-0.165,0.165-0.503,0.167-0.672-0.002L6.889,6.029c-0.627-0.628-1.813-0.628-2.439,0L4.061,6.418
	c-0.34,0.34-0.5,0.787-0.493,1.233H3.563v1.031h0.01c0.009,0.426,0.163,0.85,0.488,1.176l6.221,6.22
	c0.326,0.326,0.759,0.506,1.22,0.506c0.459,0,0.893-0.179,1.221-0.505l6.219-6.221c0.315-0.315,0.49-0.732,0.502-1.176h0.005V7.651
	h-0.003C19.443,7.646,19.445,7.642,19.445,7.637z"/>
<path fill="#FFFC94" d="M18.587,8.647l-0.389-0.389c-0.231-0.232-0.539-0.36-0.865-0.36c-0.328,0-0.635,0.128-0.865,0.359
	l-4.278,4.246c-0.368,0.367-1.008,0.368-1.377-0.001L6.534,8.258c-0.462-0.462-1.269-0.463-1.732,0L4.413,8.647
	c-0.477,0.477-0.477,1.254,0,1.732l5.832,5.833l0.39,0.388c0.231,0.231,0.538,0.359,0.865,0.359s0.635-0.128,0.866-0.357
	l6.221-6.223c0.231-0.23,0.358-0.539,0.358-0.867C18.945,9.186,18.818,8.877,18.587,8.647z"/>
</svg>
