<?xml version="1.0" encoding="utf-8"?>
<!-- Generator: Adobe Illustrator 16.0.0, SVG Export Plug-In . SVG Version: 6.00 Build 0)  -->
<!DOCTYPE svg PUBLIC "-//W3C//DTD SVG 1.1//EN" "http://www.w3.org/Graphics/SVG/1.1/DTD/svg11.dtd">
<svg version="1.1" id="Layer_1" xmlns="http://www.w3.org/2000/svg" xmlns:xlink="http://www.w3.org/1999/xlink" x="0px" y="0px"
	 width="28.953px" height="8.811px" viewBox="0 0 28.953 8.811" style="enable-background:new 0 0 28.953 8.811;"
	 xml:space="preserve">
<path style="opacity:0.7;fill:#2993C1;enable-background:new    ;" d="M25.041,0.436c-2.156,0-18.973,0-21.13,0
	C1.754,0.436,0,1.932,0,3.77v1.708c0,1.838,1.754,3.334,3.911,3.334c1.775,0,19.356,0,21.13,0c2.157,0,3.912-1.496,3.912-3.334V3.77
	C28.953,1.932,27.198,0.436,25.041,0.436z"/>
<path style="opacity:0.7;fill:#0F3849;enable-background:new    ;" d="M25.041,0C23.63,0,5.322,0,3.911,0C1.754,0,0,1.495,0,3.333
	s1.754,3.333,3.911,3.333c1.738,0,19.394,0,21.13,0c2.157,0,3.912-1.496,3.912-3.333C28.953,1.495,27.198,0,25.041,0z"/>
<path style="opacity:0.8;fill:#FFFC94;" d="M25.041,2.515c-1.079,0-20.05,0-21.13,0c-1.355,0-2.456,0.938-2.456,2.093
	c0,1.156,1.1,2.095,2.456,2.095c1.258,0,19.874,0,21.13,0c1.355,0,2.457-0.938,2.457-2.095C27.498,3.453,26.396,2.515,25.041,2.515z
	"/>
</svg>
