<?xml version="1.0" encoding="utf-8"?>
<!-- Generator: Adobe Illustrator 16.0.0, SVG Export Plug-In . SVG Version: 6.00 Build 0)  -->
<!DOCTYPE svg PUBLIC "-//W3C//DTD SVG 1.1//EN" "http://www.w3.org/Graphics/SVG/1.1/DTD/svg11.dtd">
<svg version="1.1" id="Layer_1" xmlns="http://www.w3.org/2000/svg" xmlns:xlink="http://www.w3.org/1999/xlink" x="0px" y="0px"
	 width="18.822px" height="18.821px" viewBox="20.924 3.628 18.822 18.821"
	 style="enable-background:new 20.924 3.628 18.822 18.821;" xml:space="preserve">
<style type="text/css">
<![CDATA[
	.st0{opacity:0.9;fill:#044456;}
]]>
</style>
<path class="st0" d="M32.841,13.037l2.406-2.404c0.266-0.266,0.414-0.619,0.414-0.999c0-0.378-0.148-0.732-0.412-0.993l-0.242-0.245
	c-0.531-0.533-1.463-0.531-1.99-0.003l-2.67,2.676l-2.695-2.674c-0.514-0.513-1.473-0.515-1.988,0l-0.246,0.246
	c-0.545,0.548-0.545,1.439,0,1.987l2.414,2.411l-2.406,2.404c-0.268,0.266-0.416,0.619-0.416,0.998c0,0.377,0.148,0.73,0.41,0.994
	l0.244,0.246c0.529,0.531,1.463,0.531,1.988,0.004l2.67-2.678l2.697,2.674c0.514,0.514,1.473,0.514,1.986,0l0.246-0.246
	c0.547-0.545,0.547-1.439,0-1.988L32.841,13.037z"/>
</svg>
