<?xml version="1.0" encoding="utf-8"?>
<!-- Generator: Adobe Illustrator 16.0.0, SVG Export Plug-In . SVG Version: 6.00 Build 0)  -->
<!DOCTYPE svg PUBLIC "-//W3C//DTD SVG 1.1//EN" "http://www.w3.org/Graphics/SVG/1.1/DTD/svg11.dtd">
<svg version="1.1" id="Layer_1" xmlns="http://www.w3.org/2000/svg" xmlns:xlink="http://www.w3.org/1999/xlink" x="0px" y="0px"
	 width="23px" height="25px" viewBox="0 0 23 25" style="enable-background:new 0 0 23 25;" xml:space="preserve">
<path style="fill:#FA918D;" d="M19.521,4.666h-0.008c-0.002-0.253-0.039-0.508-0.127-0.753c-0.205-0.557-0.613-1.001-1.154-1.254
	L17.738,2.43c-0.531-0.25-1.143-0.28-1.705-0.075c-0.561,0.205-1.006,0.615-1.254,1.15l-4.44,9.521l-2.676-2.677
	c-0.841-0.842-2.307-0.841-3.145,0.001l-0.387,0.387c-0.406,0.403-0.632,0.938-0.647,1.511H3.478v3.166h0.01
	c0.025,0.56,0.248,1.081,0.643,1.47l4.954,4.955c0.085,0.098,0.867,0.943,2.107,0.943c1.121,0,1.82-0.736,2.083-1.227l6.035-12.937
	c0.117-0.251,0.182-0.517,0.201-0.786h0.01V4.666z"/>
<path style="fill:#A32D29;" d="M19.387,3.913c-0.205-0.557-0.613-1.001-1.154-1.254L17.738,2.43c-0.531-0.25-1.143-0.28-1.705-0.075
	c-0.561,0.205-1.006,0.615-1.254,1.15l-4.44,9.521l-2.676-2.677c-0.841-0.842-2.307-0.841-3.145,0.001l-0.387,0.387
	c-0.422,0.418-0.654,0.978-0.654,1.575c0,0.599,0.233,1.16,0.652,1.573l4.954,4.955c0.085,0.097,0.867,0.943,2.107,0.943
	c1.121,0,1.82-0.737,2.083-1.227l6.035-12.938C19.563,5.078,19.59,4.474,19.387,3.913z"/>
<path style="fill:#3F1212;" d="M18.723,6.109c-0.123-0.337-0.371-0.607-0.699-0.761l-0.5-0.231c-0.32-0.151-0.691-0.168-1.031-0.045
	C16.15,5.197,15.881,5.445,15.73,5.77l-4.969,10.653l-3.559-3.561c-0.256-0.255-0.594-0.396-0.955-0.396
	c-0.359,0-0.697,0.141-0.953,0.397l-0.389,0.389c-0.254,0.254-0.395,0.592-0.395,0.955s0.141,0.702,0.395,0.954l4.992,4.995
	c0.023,0.026,0.58,0.646,1.451,0.646c0.889,0,1.271-0.686,1.291-0.722l6.035-12.94C18.828,6.814,18.846,6.447,18.723,6.109z"/>
</svg>
