<?xml version="1.0" encoding="utf-8"?>
<!-- Generator: Adobe Illustrator 16.0.0, SVG Export Plug-In . SVG Version: 6.00 Build 0)  -->
<!DOCTYPE svg PUBLIC "-//W3C//DTD SVG 1.1//EN" "http://www.w3.org/Graphics/SVG/1.1/DTD/svg11.dtd">
<svg version="1.1" id="Layer_1" xmlns="http://www.w3.org/2000/svg" xmlns:xlink="http://www.w3.org/1999/xlink" x="0px" y="0px"
	 width="23px" height="25px" viewBox="0 0 23 25" style="enable-background:new 0 0 23 25;" xml:space="preserve">
<path style="fill:#FA918D;" d="M18.462,10.73c0.213-0.387,0.338-0.818,0.338-1.274c0-0.073-0.016-0.143-0.021-0.214l-0.004-1.556
	c0.009-0.077,0.023-0.152,0.023-0.23c0-0.502-0.145-0.978-0.398-1.39c-0.103-0.174-0.219-0.342-0.371-0.492l-0.291-0.291
	c-0.146-0.147-0.319-0.263-0.502-0.364c-1.012-0.578-2.45-0.461-3.271,0.362l-0.943,0.946l-1.518,1.504L9.986,6.228L9.042,5.281
	C8.221,4.458,6.781,4.342,5.771,4.919C5.588,5.021,5.416,5.138,5.27,5.284L4.979,5.575C4.826,5.727,4.708,5.896,4.604,6.072
	C4.352,6.482,4.208,6.957,4.208,7.457c0,0.078,0.017,0.153,0.022,0.23L4.229,9.243C4.223,9.313,4.208,9.384,4.208,9.457
	c0,0.456,0.125,0.888,0.337,1.274c0.114,0.217,0.25,0.426,0.434,0.609l1.144,1.143L4.99,13.615
	c-0.186,0.184-0.328,0.393-0.449,0.613c-0.014,0.024-0.027,0.049-0.04,0.072c-0.106,0.213-0.188,0.437-0.233,0.672
	c-0.007,0.028-0.008,0.059-0.013,0.088c-0.019,0.11-0.04,0.222-0.044,0.336L4.209,17.6c0.004,0.129,0.025,0.254,0.048,0.379
	c0.003,0.018,0.003,0.033,0.007,0.052c0.047,0.241,0.129,0.47,0.239,0.687c0.011,0.021,0.021,0.039,0.033,0.061
	c0.118,0.221,0.26,0.429,0.442,0.607l0.289,0.293c0.485,0.486,1.174,0.767,1.887,0.767c0.535,0,1.056-0.158,1.486-0.441
	c0.146-0.094,0.281-0.2,0.402-0.321l2.461-2.44l2.462,2.44c0.121,0.121,0.257,0.229,0.402,0.321c0.43,0.283,0.95,0.441,1.485,0.441
	c0.713,0,1.4-0.279,1.887-0.767l0.289-0.293c0.183-0.18,0.322-0.388,0.441-0.607c0.012-0.021,0.022-0.04,0.033-0.061
	c0.109-0.217,0.193-0.445,0.24-0.687c0.004-0.019,0.004-0.035,0.007-0.052c0.021-0.125,0.043-0.252,0.048-0.381l-0.002-2.203
	c-0.005-0.113-0.025-0.225-0.044-0.334c-0.006-0.03-0.006-0.061-0.013-0.09c-0.047-0.234-0.127-0.457-0.233-0.67
	c-0.014-0.024-0.026-0.049-0.041-0.072c-0.121-0.223-0.264-0.433-0.448-0.614l-1.132-1.132l1.142-1.143
	C18.212,11.157,18.348,10.948,18.462,10.73z"/>
<path style="fill:#A32D29;" d="M15.878,11.48l2.132-2.132c0.51-0.503,0.79-1.175,0.79-1.892c0-0.716-0.278-1.385-0.778-1.88
	l-0.289-0.29c-0.969-0.974-2.799-0.974-3.767-0.005L11.512,7.74L9.034,5.283c-0.951-0.951-2.813-0.952-3.765,0L4.979,5.575
	c-1.037,1.038-1.037,2.727,0,3.765l2.145,2.143L4.99,13.615c-0.51,0.502-0.791,1.174-0.791,1.893c0,0.715,0.279,1.385,0.779,1.877
	l0.289,0.291c0.485,0.487,1.174,0.768,1.887,0.768c0.711,0,1.397-0.278,1.881-0.762l2.453-2.459l2.479,2.457
	c0.475,0.477,1.16,0.75,1.881,0.75c0.723,0,1.408-0.273,1.883-0.748l0.293-0.293c1.035-1.037,1.035-2.725-0.002-3.764L15.878,11.48z
	"/>
<path style="fill:#3F1212;" d="M14.464,12.498l2.845-2.843c0.315-0.313,0.491-0.732,0.491-1.18c0-0.447-0.176-0.865-0.487-1.174
	l-0.287-0.29c-0.629-0.63-1.729-0.629-2.353-0.004l-3.157,3.164L8.327,7.009c-0.607-0.607-1.743-0.608-2.351,0L5.686,7.3
	c-0.646,0.648-0.646,1.703,0,2.351l2.852,2.85l-2.844,2.845c-0.317,0.313-0.492,0.73-0.492,1.179c0,0.446,0.175,0.864,0.486,1.174
	l0.289,0.29c0.627,0.63,1.728,0.63,2.351,0.005l3.157-3.165l3.189,3.162c0.607,0.607,1.742,0.607,2.35-0.001l0.291-0.29
	c0.646-0.646,0.646-1.702,0-2.35L14.464,12.498z"/>
</svg>
