<?xml version="1.0" encoding="utf-8"?>
<!-- Generator: Adobe Illustrator 16.0.0, SVG Export Plug-In . SVG Version: 6.00 Build 0)  -->
<!DOCTYPE svg PUBLIC "-//W3C//DTD SVG 1.1//EN" "http://www.w3.org/Graphics/SVG/1.1/DTD/svg11.dtd">
<svg version="1.1" id="Layer_1" xmlns="http://www.w3.org/2000/svg" xmlns:xlink="http://www.w3.org/1999/xlink" x="0px" y="0px"
	 width="23px" height="25px" viewBox="0 0 23 25" style="enable-background:new 0 0 23 25;" xml:space="preserve">
<g>
	<path style="fill:#30D653;" d="M18.6,5.566h-0.007C18.591,5.343,18.559,5.117,18.48,4.9c-0.182-0.493-0.543-0.886-1.021-1.11
		l-0.438-0.203c-0.47-0.221-1.011-0.248-1.509-0.066c-0.496,0.181-0.891,0.544-1.109,1.018l-3.931,8.425l-2.367-2.368
		C7.36,9.851,6.063,9.851,5.322,10.597l-0.343,0.342c-0.359,0.357-0.56,0.83-0.573,1.337H4.401v2.802H4.41
		c0.022,0.496,0.22,0.957,0.569,1.301l4.384,4.385c0.075,0.088,0.768,0.835,1.864,0.835c0.992,0,1.611-0.651,1.845-1.086
		l5.341-11.449c0.103-0.222,0.16-0.458,0.178-0.696H18.6V5.566z"/>
	<path style="fill:#024212;" d="M18.48,4.9c-0.182-0.493-0.543-0.886-1.021-1.11l-0.438-0.203c-0.47-0.221-1.011-0.248-1.509-0.066
		c-0.496,0.181-0.891,0.544-1.109,1.018l-3.931,8.425l-2.367-2.368C7.36,9.851,6.063,9.851,5.322,10.597l-0.343,0.342
		C4.605,11.309,4.4,11.804,4.4,12.333c0,0.53,0.206,1.027,0.577,1.392l4.384,4.385c0.075,0.087,0.768,0.835,1.865,0.835
		c0.991,0,1.61-0.652,1.844-1.085l5.341-11.45C18.636,5.931,18.66,5.396,18.48,4.9z"/>
	<path style="fill:#FFFC94;" d="M17.893,6.843c-0.108-0.298-0.328-0.537-0.619-0.673l-0.442-0.204
		c-0.282-0.134-0.61-0.149-0.911-0.04c-0.304,0.111-0.542,0.33-0.675,0.618l-4.398,9.427l-3.149-3.151
		c-0.227-0.226-0.526-0.351-0.846-0.351c-0.317,0-0.616,0.125-0.843,0.352l-0.345,0.345c-0.225,0.225-0.35,0.523-0.35,0.845
		s0.125,0.621,0.35,0.845l4.418,4.42c0.021,0.022,0.514,0.571,1.284,0.571c0.786,0,1.125-0.606,1.143-0.639L17.85,7.756
		C17.986,7.467,18.002,7.143,17.893,6.843z"/>
</g>
</svg>
