<?xml version="1.0" encoding="utf-8"?>
<!-- Generator: Adobe Illustrator 16.0.0, SVG Export Plug-In . SVG Version: 6.00 Build 0)  -->
<!DOCTYPE svg PUBLIC "-//W3C//DTD SVG 1.1//EN" "http://www.w3.org/Graphics/SVG/1.1/DTD/svg11.dtd">
<svg version="1.1" id="Layer_1" xmlns="http://www.w3.org/2000/svg" xmlns:xlink="http://www.w3.org/1999/xlink" x="0px" y="0px"
	 width="45px" height="45px" viewBox="0 0 45 45" enable-background="new 0 0 45 45" xml:space="preserve">
<g>
	<path fill="#3C869D" stroke="#3C869D" stroke-width="2" stroke-miterlimit="10" d="M5.927,32.292c0-0.371,0.297-0.673,0.663-0.673
		h31.82c0.365,0,0.663,0.302,0.663,0.673v3.813c0,0.371-0.298,0.672-0.663,0.672H6.59c-0.366,0-0.663-0.301-0.663-0.672V32.292z"/>
	<path fill="#3C869D" stroke="#3C869D" stroke-width="2" stroke-miterlimit="10" d="M5.927,21.593c0-0.371,0.297-0.672,0.663-0.672
		h31.82c0.365,0,0.663,0.301,0.663,0.672v3.813c0,0.371-0.298,0.674-0.663,0.674H6.59c-0.366,0-0.663-0.303-0.663-0.674V21.593z"/>
	<path fill="#3C869D" stroke="#3C869D" stroke-width="2" stroke-miterlimit="10" d="M5.927,10.894c0-0.371,0.297-0.672,0.663-0.672
		h31.82c0.365,0,0.663,0.301,0.663,0.672v3.814c0,0.371-0.298,0.672-0.663,0.672H6.59c-0.366,0-0.663-0.301-0.663-0.672V10.894z"/>
</g>
<g>
	<g>
		<path fill="#194B66" d="M5.927,30.292c0-0.371,0.297-0.673,0.663-0.673h31.82c0.365,0,0.663,0.302,0.663,0.673v3.813
			c0,0.371-0.298,0.672-0.663,0.672H6.59c-0.366,0-0.663-0.301-0.663-0.672V30.292z"/>
		<path fill="#194B66" d="M5.927,19.593c0-0.371,0.297-0.672,0.663-0.672h31.82c0.365,0,0.663,0.301,0.663,0.672v3.813
			c0,0.371-0.298,0.674-0.663,0.674H6.59c-0.366,0-0.663-0.303-0.663-0.674V19.593z"/>
		<path fill="#194B66" d="M5.927,8.894c0-0.371,0.297-0.672,0.663-0.672h31.82c0.365,0,0.663,0.301,0.663,0.672v3.814
			c0,0.371-0.298,0.672-0.663,0.672H6.59c-0.366,0-0.663-0.301-0.663-0.672V8.894z"/>
	</g>
	<g>
		<path fill="#194B66" d="M5.927,30.292c0-0.371,0.297-0.673,0.663-0.673h31.82c0.365,0,0.663,0.302,0.663,0.673v3.813
			c0,0.371-0.298,0.672-0.663,0.672H6.59c-0.366,0-0.663-0.301-0.663-0.672V30.292z"/>
		<path fill="#194B66" d="M5.927,19.593c0-0.371,0.297-0.672,0.663-0.672h31.82c0.365,0,0.663,0.301,0.663,0.672v3.813
			c0,0.371-0.298,0.674-0.663,0.674H6.59c-0.366,0-0.663-0.303-0.663-0.674V19.593z"/>
		<path fill="#194B66" d="M5.927,8.894c0-0.371,0.297-0.672,0.663-0.672h31.82c0.365,0,0.663,0.301,0.663,0.672v3.814
			c0,0.371-0.298,0.672-0.663,0.672H6.59c-0.366,0-0.663-0.301-0.663-0.672V8.894z"/>
	</g>
	<g>
		<path fill="none" stroke="#194B66" stroke-width="2" stroke-miterlimit="10" d="M5.927,30.292c0-0.371,0.297-0.673,0.663-0.673
			h31.82c0.365,0,0.663,0.302,0.663,0.673v3.813c0,0.371-0.298,0.672-0.663,0.672H6.59c-0.366,0-0.663-0.301-0.663-0.672V30.292z"/>
		<path fill="none" stroke="#194B66" stroke-width="2" stroke-miterlimit="10" d="M5.927,19.593c0-0.371,0.297-0.672,0.663-0.672
			h31.82c0.365,0,0.663,0.301,0.663,0.672v3.813c0,0.371-0.298,0.674-0.663,0.674H6.59c-0.366,0-0.663-0.303-0.663-0.674V19.593z"/>
		<path fill="none" stroke="#194B66" stroke-width="2" stroke-miterlimit="10" d="M5.927,8.894c0-0.371,0.297-0.672,0.663-0.672
			h31.82c0.365,0,0.663,0.301,0.663,0.672v3.814c0,0.371-0.298,0.672-0.663,0.672H6.59c-0.366,0-0.663-0.301-0.663-0.672V8.894z"/>
	</g>
</g>
<g>
	<path fill="#C9C9C9" d="M6.59,31.292c0-0.372,0.285-0.673,0.638-0.673h30.545c0.354,0,0.638,0.302,0.638,0.673v3.813
		c0,0.371-0.284,0.672-0.638,0.672H7.228c-0.353,0-0.638-0.301-0.638-0.672V31.292z"/>
	<path fill="#C9C9C9" d="M6.59,20.593c0-0.372,0.285-0.673,0.638-0.673h30.545c0.354,0,0.638,0.301,0.638,0.673v3.813
		c0,0.371-0.284,0.674-0.638,0.674H7.228c-0.353,0-0.638-0.303-0.638-0.674V20.593z"/>
	<path fill="#C9C9C9" d="M6.59,9.894c0-0.372,0.285-0.673,0.638-0.673h30.545c0.354,0,0.638,0.301,0.638,0.673v3.814
		c0,0.372-0.284,0.672-0.638,0.672H7.228c-0.353,0-0.638-0.301-0.638-0.672V9.894z"/>
</g>
</svg>
