<svg version="1.1" id="Layer_1" xmlns="http://www.w3.org/2000/svg" xmlns:xlink="http://www.w3.org/1999/xlink" x="0px" y="0px"
	 width="249.471px" height="347.99px" viewBox="0 0 249.471 347.99" enable-background="new 0 0 249.471 347.99"
	 xml:space="preserve">
    
        <defs>
        <style type="text/css">

	.st0{
            fill:none;
            stroke:#CCCCCC;
            stroke-width:1.75;
            stroke-miterlimit:10;
            stroke-dasharray: 1150;
            stroke-dashoffset: 0;
            -webkit-animation: dash .8s linear forwards; 
        }
            
        .st2{
            fill:none;
            stroke:#3F3F3F;
            stroke-width:1.75;
            stroke-miterlimit:10;
            stroke-dasharray: 1150;
            stroke-dashoffset: 0;
            -webkit-animation: dash .8s linear forwards; 
        }
         
        @-webkit-keyframes dash{
            from {
            stroke-dashoffset: 1150;
            }
            to {
            stroke-dashoffset: 0;
            }
        }
    
	.st1{
            fill:none;
            stroke:#285A75;
            stroke-width:232;
            stroke-dasharray: 400;
            stroke-dashoffset: 400;
            -webkit-animation: linebg .45s linear forwards;
            -webkit-animation-delay: .35s;
        }
            
        @-webkit-keyframes linebg{
            from {
            stroke: rgba(40,90,117,0);
            stroke-dashoffset: 400;
            stroke-width:150;
            }
            to {
            stroke: rgba(40,90,117,0.9);
            stroke-dashoffset: 0;
            stroke-width:232;
            }
        }
    
        </style>
    </defs>
<line fill="none" class="st1" x1="124.735" y1="335.218" x2="124.735" y2="27.145"/>
<path fill="none" class="st2" stroke="#3F3F3F" stroke-miterlimit="10" d="M10.609,3.481l0.06,17.096c-0.389,0.959-1.318,1.585-2.354,1.585H5.41
	c-1.4,0-2.54,1.14-2.54,2.54v314.842c0,1.399,1.14,2.54,2.54,2.54h238.65c1.401,0,2.541-1.141,2.541-2.54V24.702
	c0-1.4-1.14-2.54-2.541-2.54H27.296c-0.598,0-1.161-0.209-1.604-0.571C25.367,21.327,10.609,3,10.609,3V3.481"/>
<path fill="none" class="st0" stroke="#FFFFFF" stroke-miterlimit="10" d="M11.609,2.481l0.06,17.096c-0.389,0.959-1.318,1.585-2.354,1.585H6.41
	c-1.4,0-2.54,1.14-2.54,2.54v314.842c0,1.399,1.14,2.54,2.54,2.54h238.65c1.401,0,2.541-1.141,2.541-2.54V23.702
	c0-1.4-1.14-2.54-2.541-2.54H28.296c-0.598,0-1.161-0.209-1.604-0.571C26.367,20.327,11.609,2,11.609,2V2.481"/>
</svg>
