<?xml version="1.0" encoding="utf-8"?>
<!-- Generator: Adobe Illustrator 16.0.0, SVG Export Plug-In . SVG Version: 6.00 Build 0)  -->
<!DOCTYPE svg PUBLIC "-//W3C//DTD SVG 1.1//EN" "http://www.w3.org/Graphics/SVG/1.1/DTD/svg11.dtd">
<svg version="1.1" id="Layer_1" xmlns="http://www.w3.org/2000/svg" xmlns:xlink="http://www.w3.org/1999/xlink" x="0px" y="0px"
	 width="61px" height="78px" viewBox="-19 -25 61 78" style="enable-background:new -19 -25 61 78;" xml:space="preserve">
<g>
	
		<image style="overflow:visible;opacity:0.75;enable-background:new    ;" width="61" height="78" xlink:href="C12207BC.png"  transform="matrix(1 0 0 1 -18.9998 -25)">
	</image>
	<g>
		<g>
			<path style="fill:#FA918D;" d="M-0.228,12.298c0-1.141,0.443-2.215,1.252-3.03L15.155-4.858c0.806-0.808,1.882-1.253,3.029-1.253
				c1.15,0,2.228,0.446,3.023,1.249L22.1-3.975c0.808,0.811,1.251,1.884,1.251,3.023c0,0.715,0,3.29,0,4
				c0,1.146-0.446,2.221-1.251,3.021l-8.158,8.223l8.158,8.223c0.831,0.835,1.231,1.958,1.212,3.076
				c-0.012,0.672,0.014,3.333,0,4.059c-0.02,1.066-0.423,2.125-1.218,2.92l-0.883,0.88c-0.809,0.81-1.883,1.255-3.027,1.255
				c-1.144,0-2.22-0.445-3.025-1.254L1.905,20.205l-0.877-0.882c-0.81-0.811-1.255-1.885-1.255-3.025
				C-0.227,15.587-0.228,13.009-0.228,12.298z"/>
			<path style="fill:#A32D29;stroke:#A32D29;stroke-width:3;stroke-miterlimit:10;" d="M18.185-4.611
				c-0.743,0-1.444,0.288-1.967,0.812L2.085,10.329c-0.523,0.527-0.813,1.224-0.813,1.969c0,0.741,0.289,1.438,0.816,1.966
				l0.879,0.883l13.25,13.243c1.084,1.086,2.848,1.086,3.932,0l0.887-0.883c1.051-1.051,1.046-2.883,0-3.934l-9.641-9.718
				c-0.838-0.839-0.838-2.29-0.004-3.124l9.645-9.719c0.524-0.523,0.814-1.22,0.814-1.965c0-0.741-0.29-1.437-0.814-1.965
				l-0.887-0.883C19.629-4.323,18.926-4.611,18.185-4.611z"/>
			<path style="fill:#3F1212;" d="M18.185-2.611c-0.742,0-1.444,0.288-1.967,0.812L2.086,12.329
				c-0.523,0.527-0.813,1.224-0.813,1.97c0,0.74,0.289,1.437,0.816,1.965l0.879,0.883l13.249,13.245
				c1.084,1.084,2.848,1.084,3.932,0l0.888-0.884c1.051-1.051,1.045-2.883,0-3.934l-9.641-9.719
				c-0.838-0.84-0.838-2.289-0.004-3.124l9.645-9.719c0.524-0.523,0.813-1.22,0.813-1.965c0-0.741-0.289-1.437-0.813-1.965
				l-0.888-0.883C19.63-2.323,18.927-2.611,18.185-2.611z"/>
		</g>
	</g>
</g>
</svg>
