<?xml version="1.0" encoding="utf-8"?>
<!-- Generator: Adobe Illustrator 16.0.0, SVG Export Plug-In . SVG Version: 6.00 Build 0)  -->
<!DOCTYPE svg PUBLIC "-//W3C//DTD SVG 1.1//EN" "http://www.w3.org/Graphics/SVG/1.1/DTD/svg11.dtd">
<svg version="1.1" id="Layer_1" xmlns="http://www.w3.org/2000/svg" xmlns:xlink="http://www.w3.org/1999/xlink" x="0px" y="0px"
	 width="28.443px" height="28.445px" viewBox="0 0 28.443 28.445" style="enable-background:new 0 0 28.443 28.445;"
	 xml:space="preserve">
<style type="text/css">
<![CDATA[
	.st0{fill:#C16F02;}
	.st1{fill:#994105;}
	.st2{fill:#FF7C24;}
	.st3{fill:#FFE9A4;}
	.st4{fill:#6D2E03;}
]]>
</style>
<g>
	<path class="st1" d="M20.964,3.48H7.48c-1.93,0-3.5,1.57-3.5,3.5v3.001v8.483v3c0,1.93,1.57,3.5,3.5,3.5h13.484
		c1.93,0,3.5-1.57,3.5-3.5v-3V9.981V6.98C24.464,5.051,22.894,3.48,20.964,3.48z"/>
	<path class="st4" d="M7.48,6.48h13.484c1.93,0,3.5,1.57,3.5,3.5v-3c0-1.93-1.57-3.5-3.5-3.5H7.48c-1.93,0-3.5,1.57-3.5,3.5v3
		C3.98,8.051,5.55,6.48,7.48,6.48z"/>
	<path class="st2" d="M20.964,21.965H7.48c-1.93,0-3.5-1.57-3.5-3.5v3c0,1.93,1.57,3.5,3.5,3.5h13.484c1.93,0,3.5-1.57,3.5-3.5v-3
		C24.464,20.394,22.894,21.965,20.964,21.965z"/>
</g>
<path class="st3" d="M21.964,19.965c0,1.105-0.896,2-2,2H8.48c-1.104,0-2-0.895-2-2V8.48c0-1.104,0.896-2,2-2h11.484
	c1.104,0,2,0.896,2,2V19.965z"/>
<path class="st0" d="M19.097,13.203h-3.595c-0.145,0-0.262-0.116-0.262-0.261V9.348c0-0.145-0.116-0.261-0.26-0.261h-1.517
	c-0.144,0-0.26,0.116-0.26,0.261v3.595c0,0.145-0.117,0.261-0.262,0.261H9.348c-0.144,0-0.261,0.117-0.261,0.261v1.516
	c0,0.145,0.117,0.26,0.261,0.26h3.596c0.144,0.001,0.261,0.117,0.261,0.261v3.596c0,0.144,0.116,0.261,0.26,0.261h1.517
	c0.144,0,0.26-0.117,0.26-0.261v-3.596c0-0.144,0.117-0.26,0.261-0.261h3.596c0.144,0,0.261-0.115,0.261-0.26v-1.516
	C19.358,13.321,19.24,13.203,19.097,13.203z"/>
</svg>
