<?xml version="1.0" encoding="utf-8"?>
<!-- Generator: Adobe Illustrator 16.0.0, SVG Export Plug-In . SVG Version: 6.00 Build 0)  -->
<!DOCTYPE svg PUBLIC "-//W3C//DTD SVG 1.1//EN" "http://www.w3.org/Graphics/SVG/1.1/DTD/svg11.dtd">
<svg version="1.1" id="Layer_1" xmlns="http://www.w3.org/2000/svg" xmlns:xlink="http://www.w3.org/1999/xlink" x="0px" y="0px"
	 width="61px" height="78px" viewBox="-19 -25 61 78" style="enable-background:new -19 -25 61 78;" xml:space="preserve">
<g>
	
		<image style="overflow:visible;opacity:0.75;enable-background:new    ;" width="61" height="78" xlink:href="F179F838.png"  transform="matrix(1 0 0 1 -18.9998 -25)">
	</image>
	<g>
		<g>
			<path style="fill:#FA918D;" d="M23.351,12.298c0-1.141-0.442-2.215-1.252-3.03L7.968-4.858c-0.805-0.808-1.881-1.253-3.03-1.253
				S2.711-5.665,1.915-4.862L1.023-3.975C0.217-3.164-0.228-2.09-0.228-0.952c0,0.715,0,3.29,0,4c0,1.146,0.446,2.221,1.251,3.021
				l8.158,8.223l-8.158,8.223c-0.831,0.835-1.23,1.958-1.212,3.076c0.013,0.672-0.013,3.333,0,4.059
				c0.021,1.066,0.423,2.125,1.218,2.92l0.884,0.88c0.808,0.81,1.883,1.255,3.026,1.255c1.145,0,2.221-0.445,3.026-1.254
				l13.252-13.245l0.877-0.882c0.81-0.811,1.255-1.885,1.255-3.025C23.35,15.587,23.351,13.009,23.351,12.298z"/>
			<path style="fill:#A32D29;stroke:#A32D29;stroke-width:3;stroke-miterlimit:10;" d="M2.974-3.799L2.088-2.917
				C1.563-2.389,1.272-1.692,1.272-0.952c0,0.745,0.29,1.442,0.815,1.965l9.644,9.719c0.834,0.834,0.834,2.285-0.004,3.124
				l-9.64,9.718c-1.046,1.051-1.051,2.883,0,3.934l0.886,0.884c1.084,1.086,2.848,1.086,3.932,0l13.25-13.244l0.88-0.883
				c0.526-0.528,0.815-1.225,0.815-1.966c0-0.745-0.289-1.442-0.813-1.969L6.905-3.799C6.384-4.323,5.682-4.611,4.938-4.611
				C4.197-4.611,3.494-4.323,2.974-3.799z"/>
			<path style="fill:#FFFC94;" d="M2.974-1.799L2.087-0.917C1.562-0.389,1.272,0.308,1.272,1.048c0,0.745,0.289,1.442,0.814,1.965
				l9.644,9.719c0.834,0.834,0.834,2.284-0.004,3.124l-9.64,9.719c-1.045,1.051-1.051,2.883,0,3.934l0.887,0.883
				c1.084,1.086,2.848,1.086,3.932,0l13.249-13.244l0.88-0.883c0.526-0.528,0.815-1.225,0.815-1.965c0-0.746-0.289-1.443-0.813-1.97
				L6.905-1.799C6.384-2.323,5.681-2.611,4.938-2.611S3.493-2.323,2.974-1.799z"/>
		</g>
	</g>
</g>
</svg>
