<?xml version="1.0" encoding="utf-8"?>
<!-- Generator: Adobe Illustrator 16.0.0, SVG Export Plug-In . SVG Version: 6.00 Build 0)  -->
<!DOCTYPE svg PUBLIC "-//W3C//DTD SVG 1.1//EN" "http://www.w3.org/Graphics/SVG/1.1/DTD/svg11.dtd">
<svg version="1.1" id="Layer_1" xmlns="http://www.w3.org/2000/svg" xmlns:xlink="http://www.w3.org/1999/xlink" x="0px" y="0px"
	 width="20.75px" height="20.75px" viewBox="0 0 20.75 20.75" style="enable-background:new 0 0 20.75 20.75;" xml:space="preserve"
	>
<path style="fill:#FA918D;" d="M17.373,14.124c0-0.602-0.234-1.167-0.659-1.592l-2.017-2.016c0.015-0.162,0.021-0.324,0.021-0.485
	c-0.002-0.347-0.012-1.705-0.013-2.043c-0.005-1.452-0.562-2.875-1.637-3.949c-1.071-1.072-2.499-1.662-4.017-1.662
	c-1.518,0-2.943,0.59-4.015,1.66c-1.108,1.107-1.656,2.563-1.653,4.02c0,0.334,0.001,1.658,0,1.992
	c-0.004,1.455,0.544,2.913,1.653,4.021c1.063,1.062,2.477,1.646,3.984,1.646c0.721,0,1.439-0.138,2.11-0.402l2.4,2.402
	c0.426,0.424,0.99,0.657,1.592,0.657c0.601,0,1.165-0.233,1.59-0.658s0.659-0.99,0.659-1.592
	C17.373,15.769,17.373,14.479,17.373,14.124z M10.409,9.408c-0.724,0.723-1.987,0.722-2.709,0C7.592,9.301,7.503,9.18,7.426,9.054
	C7.503,8.927,7.592,8.806,7.7,8.698c0.36-0.36,0.84-0.56,1.352-0.56c0.513,0,0.995,0.199,1.356,0.563
	c0.107,0.107,0.195,0.228,0.273,0.354C10.604,9.182,10.516,9.301,10.409,9.408z"/>
<path style="fill:#A32D29;" d="M16.714,12.532l-2.399-2.399c0.833-2.098,0.363-4.486-1.245-6.094
	c-1.071-1.072-2.499-1.662-4.017-1.662c-1.518,0-2.943,0.59-4.015,1.66c-2.214,2.214-2.214,5.818,0,8.034
	c1.063,1.062,2.477,1.646,3.984,1.646c0.721,0,1.439-0.138,2.11-0.402l2.4,2.402c0.426,0.424,0.99,0.657,1.592,0.657
	c0.601,0,1.165-0.233,1.59-0.658s0.659-0.99,0.659-1.592S17.139,12.957,16.714,12.532z M10.969,8.055c0,0.512-0.2,0.993-0.56,1.354
	c-0.724,0.723-1.987,0.722-2.709,0C7.338,9.047,7.139,8.566,7.139,8.054S7.338,7.061,7.7,6.699c0.36-0.361,0.841-0.56,1.353-0.56
	c0.513,0,0.994,0.198,1.355,0.56S10.968,7.541,10.969,8.055z"/>
<path style="fill:#3F1212;" d="M12.539,5.268C10.617,3.346,7.49,3.346,5.568,5.267c-1.922,1.923-1.922,5.05,0,6.972
	c1.55,1.549,3.875,1.828,5.728,0.877l2.767,2.768c0.585,0.584,1.535,0.586,2.121,0s0.586-1.537,0-2.123l-2.767-2.766
	C14.367,9.143,14.089,6.817,12.539,5.268z M10.939,10.638c-1.041,1.038-2.731,1.038-3.77,0c-1.04-1.039-1.04-2.73,0-3.771
	c1.038-1.039,2.729-1.038,3.769,0.002C11.978,7.908,11.979,9.599,10.939,10.638z"/>
</svg>
