<?xml version="1.0" encoding="utf-8"?>
<!-- Generator: Adobe Illustrator 16.0.0, SVG Export Plug-In . SVG Version: 6.00 Build 0)  -->
<!DOCTYPE svg PUBLIC "-//W3C//DTD SVG 1.1//EN" "http://www.w3.org/Graphics/SVG/1.1/DTD/svg11.dtd">
<svg version="1.1" id="Layer_1" xmlns="http://www.w3.org/2000/svg" xmlns:xlink="http://www.w3.org/1999/xlink" x="0px" y="0px"
	 width="763.836px" height="85.317px" viewBox="0 0 763.836 85.317" style="enable-background:new 0 0 763.836 85.317;"
	 xml:space="preserve">
<linearGradient id="SVGID_1_" gradientUnits="userSpaceOnUse" x1="385.2095" y1="-8" x2="385.2095" y2="66.3169">
	<stop  offset="0" style="stop-color:#FFFFFF;stop-opacity:0"/>
	<stop  offset="0.1449" style="stop-color:#CAD4DD;stop-opacity:0.1449"/>
	<stop  offset="0.2985" style="stop-color:#99ACBD;stop-opacity:0.2985"/>
	<stop  offset="0.4511" style="stop-color:#708CA3;stop-opacity:0.4511"/>
	<stop  offset="0.5996" style="stop-color:#51728F;stop-opacity:0.5996"/>
	<stop  offset="0.7431" style="stop-color:#3A6081;stop-opacity:0.7431"/>
	<stop  offset="0.8791" style="stop-color:#2D5578;stop-opacity:0.8791"/>
	<stop  offset="1" style="stop-color:#285175"/>
</linearGradient>
<polygon style="fill:url(#SVGID_1_);" points="706.278,6.838 694.86,-0.582 685.347,-0.582 685.347,2.985 679.774,-0.582 
	664.419,-0.582 664.419,10.377 660.855,6.477 649.996,-0.582 625.633,-0.582 625.633,3.32 622.066,-0.582 597.703,-0.582 
	586.841,6.477 586.841,23.46 571.318,6.477 560.456,-0.582 536.095,-0.582 536.095,19.691 517.566,-0.582 503.699,-0.582 
	503.699,10.377 500.135,6.477 489.272,-0.582 464.91,-0.582 464.91,7.849 470.569,14.04 468.256,14.04 461.343,6.477 
	450.481,-0.582 426.119,-0.582 426.119,10.377 422.556,6.477 411.694,-0.582 387.333,-0.582 387.333,3.322 383.765,-0.58 
	372.348,-8 347.475,-8 347.475,3.318 343.909,-0.582 319.546,-0.582 308.684,6.477 308.684,10.379 305.117,6.477 294.255,-0.582 
	269.893,-0.582 269.893,3.32 266.328,-0.58 254.91,-8 243.797,-8 243.797,-4.433 238.226,-8 221.272,-8 221.272,18.031 
	217.658,14.076 209.218,14.076 202.272,6.477 191.41,-0.582 167.049,-0.582 167.049,10.378 163.483,6.477 152.62,-0.582 
	128.258,-0.582 128.258,3.318 124.693,-0.582 110.827,-0.582 110.827,8.955 114.494,12.967 113.192,12.967 107.261,6.477 
	96.397,-0.582 72.036,-0.582 72.036,5.867 66.143,-0.582 54.725,-8 32.178,-8 32.178,31.345 64.142,66.316 89.016,66.316 
	100.434,66.316 100.434,62.415 104,66.316 117.866,66.316 117.866,57.328 125.938,66.316 139.224,66.316 139.224,62.415 
	142.79,66.316 156.657,66.316 156.657,62.415 160.222,66.316 195.446,66.316 195.446,62.415 199.013,66.316 212.879,66.316 
	212.879,57.504 220.934,66.316 234.236,66.316 234.236,54.328 237.802,58.229 245.845,58.229 253.236,66.316 267.41,66.316 
	267.41,61.39 271.914,66.316 279.396,66.316 279.396,61.39 283.899,66.316 298.292,66.316 298.292,62.415 301.857,66.316 
	337.081,66.316 337.081,62.415 340.646,66.316 375.872,66.316 375.872,62.415 379.438,66.316 403.907,66.316 415.729,66.316 
	415.729,55.356 419.296,59.258 430.159,66.316 454.518,66.316 454.518,62.415 458.084,66.316 471.952,66.316 471.952,57.504 
	480.007,66.316 493.309,66.316 493.309,62.415 496.875,66.316 532.098,66.316 532.098,62.416 535.662,66.316 564.493,66.316 
	564.493,62.416 568.059,66.316 592.418,66.316 603.281,66.316 603.281,62.415 606.848,66.316 615.238,66.316 615.238,62.415 
	618.806,66.316 654.03,66.316 654.03,58.014 640.146,42.822 642.574,42.822 657.595,59.258 668.46,66.316 692.818,66.316 
	692.818,62.416 696.385,66.316 708.959,66.316 708.959,61.39 713.463,66.316 720.945,66.316 720.945,61.39 725.449,66.316 
	738.242,66.316 738.242,41.811 "/>
<path style="fill:none;stroke:#235570;stroke-width:2;stroke-miterlimit:10;" d="M378.873,34.241L346.909-0.732h-24.362
	l-10.862,7.059v24.868l31.962,34.973h35.226v-8.304l-13.885-15.191h13.885V34.241z"/>
<polygon style="fill:none;stroke:#235570;stroke-width:2;stroke-miterlimit:10;" points="101.106,46.596 101.106,34.241 
	69.143,-0.732 57.725,-8.149 35.178,-8.149 35.178,31.194 67.142,66.167 92.016,66.167 103.434,66.167 103.434,46.596 "/>
<polygon style="fill:none;stroke:#235570;stroke-width:2;stroke-miterlimit:10;" points="386.766,-0.73 375.348,-8.149 
	350.475,-8.149 350.475,31.194 382.438,66.167 406.909,66.167 418.729,66.167 418.729,34.243 "/>
<polygon style="fill:none;stroke:#235570;stroke-width:2;stroke-miterlimit:10;" points="142.224,41.3 110.261,6.327 99.397,-0.732 
	75.036,-0.732 75.036,31.194 107,66.167 120.866,66.167 120.866,57.179 128.938,66.167 142.224,66.167 142.224,55.008 
	138.69,52.712 142.224,52.712 "/>
<polygon style="fill:none;stroke:#235570;stroke-width:2;stroke-miterlimit:10;" points="166.483,6.327 155.62,-0.732 
	131.258,-0.732 131.258,7.699 136.917,13.89 131.258,13.89 131.258,31.194 163.222,66.167 198.446,66.167 198.446,41.3 "/>
<polygon style="fill:none;stroke:#235570;stroke-width:2;stroke-miterlimit:10;" points="269.328,-0.73 257.91,-8.149 
	246.797,-8.149 246.797,-4.583 241.226,-8.149 224.272,-8.149 224.272,31.194 256.236,66.167 270.41,66.167 270.41,61.239 
	274.914,66.167 282.396,66.167 282.396,61.239 286.899,66.167 301.292,66.167 301.292,34.243 "/>
<polygon style="fill:none;stroke:#235570;stroke-width:2;stroke-miterlimit:10;" points="159.657,34.241 127.693,-0.732 
	113.827,-0.732 113.827,8.805 117.494,12.817 113.827,12.817 113.827,31.194 145.79,66.167 159.657,66.167 159.657,47.79 
	155.99,43.777 159.657,43.777 "/>
<polygon style="fill:none;stroke:#235570;stroke-width:2;stroke-miterlimit:10;" points="205.272,6.327 194.41,-0.732 
	170.049,-0.732 170.049,-0.732 170.049,31.194 202.013,66.167 215.879,66.167 215.879,57.354 223.934,66.167 237.236,66.167 
	237.236,41.3 "/>
<polygon style="fill:none;stroke:#235570;stroke-width:2;stroke-miterlimit:10;" points="220.658,13.926 208.838,13.926 
	208.838,23.106 240.802,58.08 252.622,58.08 252.622,48.899 "/>
<path style="fill:none;stroke:#235570;stroke-width:2;stroke-miterlimit:10;" d="M308.117,6.327l-10.861-7.059h-24.362v8.431
	l5.659,6.191h-5.659v17.304l31.964,34.973h35.224V41.3L308.117,6.327z"/>
<path style="fill:none;stroke:#235570;stroke-width:2;stroke-miterlimit:10;" d="M425.557,6.327l-10.861-7.059h-24.363v24.869
	l31.964,34.972l10.862,7.059h24.36V41.3L425.557,6.327z"/>
<polygon style="fill:none;stroke:#235570;stroke-width:2;stroke-miterlimit:10;" points="464.343,6.327 453.482,-0.732 
	429.121,-0.732 429.121,-0.732 429.121,31.194 461.084,66.167 474.952,66.167 474.952,57.354 483.007,66.167 496.309,66.167 
	496.309,41.3 "/>
<polygon style="fill:none;stroke:#235570;stroke-width:2;stroke-miterlimit:10;" points="503.136,6.327 492.272,-0.732 
	467.911,-0.732 467.911,7.699 473.569,13.89 467.911,13.89 467.911,31.194 499.875,66.167 535.099,66.167 535.099,41.3 "/>
<polygon style="fill:none;stroke:#235570;stroke-width:2;stroke-miterlimit:10;" points="567.494,57.863 552.529,41.492 
	552.529,34.241 520.567,-0.732 506.7,-0.732 506.7,31.194 538.663,66.167 567.494,66.167 567.494,57.863 "/>
<polygon style="fill:none;stroke:#235570;stroke-width:2;stroke-miterlimit:10;" points="574.318,6.327 563.456,-0.732 
	539.096,-0.732 539.096,31.194 571.06,66.167 595.419,66.167 606.282,66.167 606.282,41.3 "/>
<polygon style="fill:none;stroke:#235570;stroke-width:2;stroke-miterlimit:10;" points="586.275,22.015 577.885,22.015 
	577.885,31.194 609.849,66.167 618.239,66.167 618.239,56.987 "/>
<path style="fill:none;stroke:#235570;stroke-width:2;stroke-miterlimit:10;" d="M657.03,34.241L625.066-0.732h-24.361
	l-10.863,7.059v24.868l31.964,34.973h35.225v-8.304l-13.885-15.191h13.885V34.241z"/>
<path style="fill:none;stroke:#235570;stroke-width:2;stroke-miterlimit:10;" d="M663.856,6.327l-10.86-7.059h-24.363v24.869
	l31.964,34.972l10.864,7.059h24.359V41.3L663.856,6.327z"/>
<path style="fill:none;stroke:#235570;stroke-width:2;stroke-miterlimit:10;" d="M709.278,6.688l-11.417-7.42h-9.514v3.568
	l-5.573-3.568H667.42v31.926l31.965,34.973h12.575v-4.928l4.504,4.928h7.482v-4.928l4.504,4.928h12.793V41.66L709.278,6.688z"/>
<g style="opacity:0.6;">
	
		<image style="overflow:visible;opacity:0.75;" width="2977" height="332" xlink:href="D5105C7D.png"  transform="matrix(0.24 0 0 0.24 47.0068 8.8428)">
	</image>
	<g>
		<g>
			<polygon style="fill:#FFFFFF;" points="354.507,36.393 343.645,43.452 343.645,68.319 378.871,68.319 378.871,60.018 
				357.507,60.018 357.507,44.823 378.871,44.823 378.871,36.393 			"/>
			<polygon style="fill:#FFFFFF;" points="485.443,36.393 461.082,36.393 461.082,68.319 474.949,68.319 474.949,44.823 
				483.004,44.823 483.004,68.319 496.305,68.319 496.305,43.452 			"/>
			<polygon style="fill:#FFFFFF;" points="538.66,36.393 538.66,68.319 567.492,68.319 567.492,60.018 552.529,60.018 
				552.529,36.393 			"/>
			<path style="fill:#FFFFFF;" d="M524.232,36.393h-24.361v8.431h21.922v6.193h-21.922v17.303h35.225V43.452L524.232,36.393z
				 M521.793,60.018h-8.055v-5.081h8.055V60.018z"/>
			<path style="fill:#FFFFFF;" d="M446.656,36.393h-24.362v24.868l10.865,7.059h24.358V43.452L446.656,36.393z M444.219,60.018
				h-8.055V44.823h8.055V60.018z"/>
			<path style="fill:#FFFFFF;" d="M595.418,36.393h-24.361v31.927h24.361h10.863V43.452L595.418,36.393z M592.979,60.018h-8.055
				V44.823h8.055V60.018z"/>
			<path style="fill:#FFFFFF;" d="M329.217,36.393h-24.362v8.431h21.922v6.193h-21.922v17.303h35.225V43.452L329.217,36.393z
				 M326.777,60.018h-8.055v-5.081h8.055V60.018z"/>
			<path style="fill:#FFFFFF;" d="M101.104,48.749V36.393l-11.419-7.417H67.14v39.344h24.875h11.418v-19.57H101.104z M88.396,57.885
				h-6.22v-6.806h6.22V57.885z M88.396,46.213h-6.22V39.41h6.22V46.213z"/>
			<path style="fill:#FFFFFF;" d="M407.31,28.976h-24.874v39.344h24.472h11.821V36.395L407.31,28.976z M404.733,57.885h-8.303V39.41
				h8.303V57.885z"/>
			<path style="fill:#FFFFFF;" d="M142.222,43.452l-10.862-7.06h-24.362v31.927h13.867V54.937h4.65h3.422v13.383h13.286V57.16
				l-3.534-2.296h3.534V43.452z M120.864,44.823h8.056v6.193h-8.056V44.823z"/>
			<path style="fill:#FFFFFF;" d="M187.582,36.393H163.22v8.431h21.923v6.193H163.22v17.303h35.224V43.452L187.582,36.393z
				 M185.143,60.018h-8.056v-5.081h8.056V60.018z"/>
			<g>
				<rect x="145.788" y="49.941" style="fill:#FFFFFF;" width="13.867" height="18.378"/>
				<g>
					<polygon style="fill:#FFFFFF;" points="145.788,36.393 145.788,45.93 152.879,45.93 159.655,45.93 159.655,36.393 					"/>
				</g>
			</g>
			<polygon style="fill:#FFFFFF;" points="226.371,36.393 202.01,36.393 202.01,68.319 215.877,68.319 215.877,44.823 
				223.932,44.823 223.932,68.319 237.234,68.319 237.234,43.452 			"/>
			<polygon style="fill:#FFFFFF;" points="632.666,36.393 621.803,43.452 621.803,68.319 657.029,68.319 657.029,60.018 
				635.666,60.018 635.666,44.823 657.029,44.823 657.029,36.393 			"/>
			<path style="fill:#FFFFFF;" d="M684.957,36.393h-24.361v24.868l10.863,7.059h24.359V43.452L684.957,36.393z M682.518,60.018
				h-8.055V44.823h8.055V60.018z"/>
			<polygon style="fill:#FFFFFF;" points="711.961,68.319 711.961,45.303 716.461,45.303 716.461,68.319 723.945,68.319 
				723.945,45.303 728.447,45.303 728.447,68.319 741.242,68.319 741.242,43.813 729.822,36.393 720.309,36.393 720.309,39.961 
				714.736,36.393 699.383,36.393 699.383,68.319 			"/>
			<rect x="609.848" y="59.139" style="fill:#FFFFFF;" width="8.389" height="9.181"/>
			<g>
				<polygon style="fill:#FFFFFF;" points="270.408,68.319 270.408,40.284 274.912,40.284 274.912,68.319 282.394,68.319 
					282.394,40.284 286.897,40.284 286.897,68.319 301.289,68.319 301.289,36.395 289.871,28.976 278.758,28.976 278.758,32.542 
					273.187,28.976 256.234,28.976 256.234,68.319 				"/>
				<rect x="240.8" y="51.051" style="fill:#FFFFFF;" width="11.82" height="9.182"/>
			</g>
		</g>
	</g>
</g>
<g>
	
		<image style="overflow:visible;opacity:0.75;" width="2983" height="338" xlink:href="D5105C7E.png"  transform="matrix(0.24 0 0 0.24 46.2568 8.0928)">
	</image>
	<g>
		<g>
			<linearGradient id="SVGID_2_" gradientUnits="userSpaceOnUse" x1="361.2578" y1="36.3926" x2="361.2578" y2="68.3193">
				<stop  offset="0" style="stop-color:#FFFFFF;stop-opacity:0"/>
				<stop  offset="1" style="stop-color:#FFFFFF"/>
			</linearGradient>
			<polygon style="fill:url(#SVGID_2_);stroke:#FFFFFF;stroke-width:1.5;stroke-miterlimit:10;" points="354.507,36.393 
				343.645,43.452 343.645,68.319 378.871,68.319 378.871,60.018 357.507,60.018 357.507,44.823 378.871,44.823 378.871,36.393 			
				"/>
			<linearGradient id="SVGID_3_" gradientUnits="userSpaceOnUse" x1="478.6934" y1="36.3926" x2="478.6934" y2="68.3193">
				<stop  offset="0" style="stop-color:#FFFFFF;stop-opacity:0"/>
				<stop  offset="1" style="stop-color:#FFFFFF"/>
			</linearGradient>
			<polygon style="fill:url(#SVGID_3_);stroke:#FFFFFF;stroke-width:1.5;stroke-miterlimit:10;" points="485.443,36.393 
				461.082,36.393 461.082,68.319 474.949,68.319 474.949,44.823 483.004,44.823 483.004,68.319 496.305,68.319 496.305,43.452 			
				"/>
			<linearGradient id="SVGID_4_" gradientUnits="userSpaceOnUse" x1="553.0762" y1="36.3926" x2="553.0762" y2="68.3193">
				<stop  offset="0" style="stop-color:#FFFFFF;stop-opacity:0"/>
				<stop  offset="1" style="stop-color:#FFFFFF"/>
			</linearGradient>
			<polygon style="fill:url(#SVGID_4_);stroke:#FFFFFF;stroke-width:1.5;stroke-miterlimit:10;" points="538.66,36.393 
				538.66,68.319 567.492,68.319 567.492,60.018 552.529,60.018 552.529,36.393 			"/>
			<linearGradient id="SVGID_5_" gradientUnits="userSpaceOnUse" x1="517.4834" y1="36.3926" x2="517.4834" y2="68.3193">
				<stop  offset="0" style="stop-color:#FFFFFF;stop-opacity:0"/>
				<stop  offset="1" style="stop-color:#FFFFFF"/>
			</linearGradient>
			<path style="fill:url(#SVGID_5_);stroke:#FFFFFF;stroke-width:1.5;stroke-miterlimit:10;" d="M524.232,36.393h-24.361v8.431
				h21.922v6.193h-21.922v17.303h35.225V43.452L524.232,36.393z M521.793,60.018h-8.055v-5.081h8.055V60.018z"/>
			<linearGradient id="SVGID_6_" gradientUnits="userSpaceOnUse" x1="439.9063" y1="36.3926" x2="439.9063" y2="68.3193">
				<stop  offset="0" style="stop-color:#FFFFFF;stop-opacity:0"/>
				<stop  offset="1" style="stop-color:#FFFFFF"/>
			</linearGradient>
			<path style="fill:url(#SVGID_6_);stroke:#FFFFFF;stroke-width:1.5;stroke-miterlimit:10;" d="M446.656,36.393h-24.362v24.868
				l10.865,7.059h24.358V43.452L446.656,36.393z M444.219,60.018h-8.055V44.823h8.055V60.018z"/>
			<linearGradient id="SVGID_7_" gradientUnits="userSpaceOnUse" x1="588.6689" y1="36.3926" x2="588.6689" y2="68.3193">
				<stop  offset="0" style="stop-color:#FFFFFF;stop-opacity:0"/>
				<stop  offset="1" style="stop-color:#FFFFFF"/>
			</linearGradient>
			<path style="fill:url(#SVGID_7_);stroke:#FFFFFF;stroke-width:1.5;stroke-miterlimit:10;" d="M595.418,36.393h-24.361v31.927
				h24.361h10.863V43.452L595.418,36.393z M592.979,60.018h-8.055V44.823h8.055V60.018z"/>
			<linearGradient id="SVGID_8_" gradientUnits="userSpaceOnUse" x1="322.4668" y1="36.3926" x2="322.4668" y2="68.3193">
				<stop  offset="0" style="stop-color:#FFFFFF;stop-opacity:0"/>
				<stop  offset="1" style="stop-color:#FFFFFF"/>
			</linearGradient>
			<path style="fill:url(#SVGID_8_);stroke:#FFFFFF;stroke-width:1.5;stroke-miterlimit:10;" d="M329.217,36.393h-24.362v8.431
				h21.922v6.193h-21.922v17.303h35.225V43.452L329.217,36.393z M326.777,60.018h-8.055v-5.081h8.055V60.018z"/>
			<linearGradient id="SVGID_9_" gradientUnits="userSpaceOnUse" x1="85.2856" y1="28.9756" x2="85.2856" y2="68.3198">
				<stop  offset="0" style="stop-color:#FFFFFF;stop-opacity:0"/>
				<stop  offset="1" style="stop-color:#FFFFFF"/>
			</linearGradient>
			<path style="fill:url(#SVGID_9_);stroke:#FFFFFF;stroke-width:1.5;stroke-miterlimit:10;" d="M101.104,48.749V36.393
				l-11.419-7.417H67.14v39.344h24.875h11.418v-19.57H101.104z M88.396,57.885h-6.22v-6.806h6.22V57.885z M88.396,46.213h-6.22
				V39.41h6.22V46.213z"/>
			<linearGradient id="SVGID_10_" gradientUnits="userSpaceOnUse" x1="400.5825" y1="28.9756" x2="400.5825" y2="68.3198">
				<stop  offset="0" style="stop-color:#FFFFFF;stop-opacity:0"/>
				<stop  offset="1" style="stop-color:#FFFFFF"/>
			</linearGradient>
			<path style="fill:url(#SVGID_10_);stroke:#FFFFFF;stroke-width:1.5;stroke-miterlimit:10;" d="M407.31,28.976h-24.874v39.344
				h24.472h11.821V36.395L407.31,28.976z M404.733,57.885h-8.303V39.41h8.303V57.885z"/>
			<linearGradient id="SVGID_11_" gradientUnits="userSpaceOnUse" x1="124.6099" y1="36.3926" x2="124.6099" y2="68.3193">
				<stop  offset="0" style="stop-color:#FFFFFF;stop-opacity:0"/>
				<stop  offset="1" style="stop-color:#FFFFFF"/>
			</linearGradient>
			<path style="fill:url(#SVGID_11_);stroke:#FFFFFF;stroke-width:1.5;stroke-miterlimit:10;" d="M142.222,43.452l-10.862-7.06
				h-24.362v31.927h13.867V54.937h4.65h3.422v13.383h13.286V57.16l-3.534-2.296h3.534V43.452z M120.864,44.823h8.056v6.193h-8.056
				V44.823z"/>
			<linearGradient id="SVGID_12_" gradientUnits="userSpaceOnUse" x1="180.8325" y1="36.3926" x2="180.8325" y2="68.3193">
				<stop  offset="0" style="stop-color:#FFFFFF;stop-opacity:0"/>
				<stop  offset="1" style="stop-color:#FFFFFF"/>
			</linearGradient>
			<path style="fill:url(#SVGID_12_);stroke:#FFFFFF;stroke-width:1.5;stroke-miterlimit:10;" d="M187.582,36.393H163.22v8.431
				h21.923v6.193H163.22v17.303h35.224V43.452L187.582,36.393z M185.143,60.018h-8.056v-5.081h8.056V60.018z"/>
			<g>
				<linearGradient id="SVGID_13_" gradientUnits="userSpaceOnUse" x1="152.7212" y1="49.9414" x2="152.7212" y2="68.3193">
					<stop  offset="0" style="stop-color:#FFFFFF;stop-opacity:0"/>
					<stop  offset="1" style="stop-color:#FFFFFF"/>
				</linearGradient>
				
					<rect x="145.788" y="49.941" style="fill:url(#SVGID_13_);stroke:#FFFFFF;stroke-width:1.5;stroke-miterlimit:10;" width="13.867" height="18.378"/>
				<g>
					<linearGradient id="SVGID_14_" gradientUnits="userSpaceOnUse" x1="152.7212" y1="36.3926" x2="152.7212" y2="45.9297">
						<stop  offset="0" style="stop-color:#FFFFFF;stop-opacity:0"/>
						<stop  offset="1" style="stop-color:#FFFFFF"/>
					</linearGradient>
					<polygon style="fill:url(#SVGID_14_);stroke:#FFFFFF;stroke-width:1.5;stroke-miterlimit:10;" points="145.788,36.393 
						145.788,45.93 152.879,45.93 159.655,45.93 159.655,36.393 					"/>
				</g>
			</g>
			<linearGradient id="SVGID_15_" gradientUnits="userSpaceOnUse" x1="219.6226" y1="36.3926" x2="219.6226" y2="68.3193">
				<stop  offset="0" style="stop-color:#FFFFFF;stop-opacity:0"/>
				<stop  offset="1" style="stop-color:#FFFFFF"/>
			</linearGradient>
			<polygon style="fill:url(#SVGID_15_);stroke:#FFFFFF;stroke-width:1.5;stroke-miterlimit:10;" points="226.371,36.393 
				202.01,36.393 202.01,68.319 215.877,68.319 215.877,44.823 223.932,44.823 223.932,68.319 237.234,68.319 237.234,43.452 			"/>
			<linearGradient id="SVGID_16_" gradientUnits="userSpaceOnUse" x1="639.416" y1="36.3926" x2="639.416" y2="68.3193">
				<stop  offset="0" style="stop-color:#FFFFFF;stop-opacity:0"/>
				<stop  offset="1" style="stop-color:#FFFFFF"/>
			</linearGradient>
			<polygon style="fill:url(#SVGID_16_);stroke:#FFFFFF;stroke-width:1.5;stroke-miterlimit:10;" points="632.666,36.393 
				621.803,43.452 621.803,68.319 657.029,68.319 657.029,60.018 635.666,60.018 635.666,44.823 657.029,44.823 657.029,36.393 			
				"/>
			<linearGradient id="SVGID_17_" gradientUnits="userSpaceOnUse" x1="678.207" y1="36.3926" x2="678.207" y2="68.3193">
				<stop  offset="0" style="stop-color:#FFFFFF;stop-opacity:0"/>
				<stop  offset="1" style="stop-color:#FFFFFF"/>
			</linearGradient>
			<path style="fill:url(#SVGID_17_);stroke:#FFFFFF;stroke-width:1.5;stroke-miterlimit:10;" d="M684.957,36.393h-24.361v24.868
				l10.863,7.059h24.359V43.452L684.957,36.393z M682.518,60.018h-8.055V44.823h8.055V60.018z"/>
			<linearGradient id="SVGID_18_" gradientUnits="userSpaceOnUse" x1="720.3125" y1="36.3926" x2="720.3125" y2="68.3193">
				<stop  offset="0" style="stop-color:#FFFFFF;stop-opacity:0"/>
				<stop  offset="1" style="stop-color:#FFFFFF"/>
			</linearGradient>
			<polygon style="fill:url(#SVGID_18_);stroke:#FFFFFF;stroke-width:1.5;stroke-miterlimit:10;" points="711.961,68.319 
				711.961,45.303 716.461,45.303 716.461,68.319 723.945,68.319 723.945,45.303 728.447,45.303 728.447,68.319 741.242,68.319 
				741.242,43.813 729.822,36.393 720.309,36.393 720.309,39.961 714.736,36.393 699.383,36.393 699.383,68.319 			"/>
			<linearGradient id="SVGID_19_" gradientUnits="userSpaceOnUse" x1="614.042" y1="59.1387" x2="614.042" y2="68.3193">
				<stop  offset="0" style="stop-color:#FFFFFF;stop-opacity:0"/>
				<stop  offset="1" style="stop-color:#FFFFFF"/>
			</linearGradient>
			
				<rect x="609.848" y="59.139" style="fill:url(#SVGID_19_);stroke:#FFFFFF;stroke-width:1.5;stroke-miterlimit:10;" width="8.389" height="9.181"/>
			<g>
				<linearGradient id="SVGID_20_" gradientUnits="userSpaceOnUse" x1="278.7617" y1="28.9756" x2="278.7617" y2="68.3198">
					<stop  offset="0" style="stop-color:#FFFFFF;stop-opacity:0"/>
					<stop  offset="1" style="stop-color:#FFFFFF"/>
				</linearGradient>
				<polygon style="fill:url(#SVGID_20_);stroke:#FFFFFF;stroke-width:1.5;stroke-miterlimit:10;" points="270.408,68.319 
					270.408,40.284 274.912,40.284 274.912,68.319 282.394,68.319 282.394,40.284 286.897,40.284 286.897,68.319 301.289,68.319 
					301.289,36.395 289.871,28.976 278.758,28.976 278.758,32.542 273.187,28.976 256.234,28.976 256.234,68.319 				"/>
				<linearGradient id="SVGID_21_" gradientUnits="userSpaceOnUse" x1="246.7095" y1="51.0508" x2="246.7095" y2="60.2324">
					<stop  offset="0" style="stop-color:#FFFFFF;stop-opacity:0"/>
					<stop  offset="1" style="stop-color:#FFFFFF"/>
				</linearGradient>
				
					<rect x="240.8" y="51.051" style="fill:url(#SVGID_21_);stroke:#FFFFFF;stroke-width:1.5;stroke-miterlimit:10;" width="11.82" height="9.182"/>
			</g>
		</g>
	</g>
</g>
</svg>
