<?xml version="1.0" encoding="utf-8"?>
<!-- Generator: Adobe Illustrator 16.0.0, SVG Export Plug-In . SVG Version: 6.00 Build 0)  -->
<!DOCTYPE svg PUBLIC "-//W3C//DTD SVG 1.1//EN" "http://www.w3.org/Graphics/SVG/1.1/DTD/svg11.dtd">
<svg version="1.1" xmlns="http://www.w3.org/2000/svg" xmlns:xlink="http://www.w3.org/1999/xlink" x="0px" y="0px"
	 width="71.333px" height="71.333px" viewBox="0 0 71.333 71.333" style="enable-background:new 0 0 71.333 71.333;"
	 xml:space="preserve">
<style type="text/css">
<![CDATA[
	.st0{display:inline;fill:#FFFFFF;}
	.st1{fill:url(#SVGID_1_);}
	.st2{fill:url(#SVGID_2_);}
	.st3{fill:url(#SVGID_3_);}
	.st4{fill:url(#SVGID_4_);}
	.st5{fill:url(#SVGID_5_);}
	.st6{fill:url(#SVGID_6_);}
	.st7{fill:url(#SVGID_7_);}
	.st8{fill:url(#SVGID_8_);}
	.st9{fill:url(#SVGID_9_);}
	.st10{fill:#FFFFFF;}
	.st11{display:inline;}
	.st12{display:inline;fill:#0062A5;}
	.st13{fill:url(#SVGID_10_);}
	.st14{fill:url(#SVGID_11_);}
	.st15{fill:url(#SVGID_12_);}
	.st16{display:none;}
]]>
</style>
<g id="bg" class="st16">
	<rect class="st12" width="71.333" height="71.333"/>
</g>
<g id="github" class="st16">
	<g class="st11">
		<path class="st10" d="M35.667,18.784c-9.498,0-17.199,7.699-17.199,17.197c0,7.822,5.223,14.419,12.371,16.507
			c0.262,0.076,0.535,0.014,0.633-0.066c0.098-0.078,0.162-0.258,0.162-0.523c0-0.82,0-1.625,0-2.336
			c-0.816,0.076-2.809,0.182-3.883-0.516c-2.152-1.396-2.076-3.322-3.18-4.451c-1.051-1.072-1.254-0.631-1.254-0.926
			s0.955-0.324,1.652,0.01c1.295,0.617,2.49,3.104,3.574,3.338c0.984,0.211,2.064-0.488,3.133-0.313
			c0.137-0.963,0.609-1.816,1.299-2.436c-4.695-0.57-7.93-3.223-7.93-7.247c0-1.77,0.432-3.035,1.584-4.568
			c-0.482-2.223-0.686-5.254-0.037-5.728c0.635-0.463,3.191,0.675,4.643,2.154c1.354-0.579,2.852-0.919,4.432-0.919
			c1.541,0,3.006,0.321,4.334,0.873c1.457-1.457,3.969-2.566,4.598-2.108c0.635,0.464,0.451,3.377-0.008,5.584
			c1.221,1.565,1.697,2.886,1.697,4.711c0,4.024-3.234,6.677-7.93,7.247c0.822,0.738,1.342,1.807,1.342,2.998
			c0,0.605,0,2.59,0,4.658c0,0.256,0.047,0.471,0.162,0.559s0.359,0.082,0.617,0.008c7.154-2.082,12.385-8.684,12.385-16.511
			C52.864,26.483,45.165,18.784,35.667,18.784z"/>
		<ellipse class="st10" cx="24.808" cy="44.097" rx="0.301" ry="0.2"/>
		<ellipse class="st10" cx="25.381" cy="44.643" rx="0.335" ry="0.223"/>
		<ellipse class="st10" cx="25.905" cy="45.296" rx="0.369" ry="0.247"/>
		<ellipse class="st10" cx="26.472" cy="46.078" rx="0.404" ry="0.27"/>
		<ellipse class="st10" cx="27.109" cy="46.881" rx="0.438" ry="0.291"/>
		<ellipse class="st10" cx="28.152" cy="47.633" rx="0.474" ry="0.316"/>
		<path class="st10" d="M30.144,47.764c0,0.186-0.227,0.338-0.508,0.338s-0.51-0.152-0.508-0.338c0-0.189,0.227-0.342,0.508-0.342
			S30.146,47.576,30.144,47.764z"/>
		<ellipse class="st10" cx="31.165" cy="47.523" rx="0.543" ry="0.361"/>
	</g>
</g>
<g id="github_x5F_hover" class="st16">
	<g class="st11">
		<linearGradient id="SVGID_1_" gradientUnits="userSpaceOnUse" x1="23.4912" y1="23.8359" x2="94.9539" y2="95.2986">
			<stop  offset="0" style="stop-color:#000000;stop-opacity:0.4"/>
			<stop  offset="0.0896" style="stop-color:#000000;stop-opacity:0.3641"/>
			<stop  offset="1" style="stop-color:#000000;stop-opacity:0"/>
		</linearGradient>
		<path class="st1" d="M107.13,83.122c-7.099-7.105-56.328-56.328-59.302-59.301c-3.112-3.111-7.412-5.037-12.161-5.037
			c-9.498,0-17.199,7.699-17.199,17.197c0,4.706,1.891,8.967,4.953,12.073c1.918,1.943,51.266,51.393,59.38,59.396L107.13,83.122z"
			/>
		<linearGradient id="SVGID_2_" gradientUnits="userSpaceOnUse" x1="22.875" y1="40.6631" x2="86.3088" y2="104.0969">
			<stop  offset="0" style="stop-color:#000000;stop-opacity:0.4"/>
			<stop  offset="0.0896" style="stop-color:#000000;stop-opacity:0.3641"/>
			<stop  offset="1" style="stop-color:#000000;stop-opacity:0"/>
		</linearGradient>
		<polygon class="st2" points="89.569,100.833 83.046,107.358 26.515,50.827 21.679,41.858 29.192,44.864 33.039,44.304 		"/>
		<linearGradient id="SVGID_3_" gradientUnits="userSpaceOnUse" x1="27.4316" y1="24.1162" x2="96.7295" y2="93.4141">
			<stop  offset="0" style="stop-color:#000000;stop-opacity:0.4"/>
			<stop  offset="0.0896" style="stop-color:#000000;stop-opacity:0.3641"/>
			<stop  offset="1" style="stop-color:#000000;stop-opacity:0"/>
		</linearGradient>
		<polygon class="st3" points="107.146,82.997 88.774,101.368 39.778,52.372 31.875,44.45 24.427,41.946 19.653,32.198 
			27.372,24.175 49.868,25.718 		"/>
		<g>
			<path class="st10" d="M35.667,18.784c-9.498,0-17.199,7.699-17.199,17.197c0,7.823,5.223,14.42,12.371,16.508
				c0.262,0.076,0.535,0.014,0.633-0.066c0.098-0.078,0.162-0.258,0.162-0.523c0-0.82,0-1.625,0-2.336
				c-0.816,0.076-2.809,0.182-3.883-0.516c-2.152-1.396-2.076-3.322-3.18-4.451c-1.051-1.072-1.254-0.631-1.254-0.926
				s0.955-0.324,1.652,0.01c1.295,0.617,2.49,3.104,3.574,3.338c0.984,0.211,2.064-0.488,3.133-0.313
				c0.137-0.963,0.609-1.816,1.299-2.436c-4.695-0.57-7.93-3.223-7.93-7.248c0-1.77,0.432-3.035,1.584-4.568
				c-0.482-2.223-0.686-5.254-0.037-5.728c0.635-0.463,3.191,0.675,4.643,2.154c1.354-0.579,2.852-0.919,4.432-0.919
				c1.541,0,3.006,0.321,4.334,0.873c1.457-1.457,3.969-2.566,4.598-2.108c0.635,0.464,0.451,3.377-0.008,5.584
				c1.221,1.565,1.697,2.886,1.697,4.711c0,4.025-3.234,6.678-7.93,7.248c0.822,0.738,1.342,1.807,1.342,2.998
				c0,0.605,0,2.59,0,4.658c0,0.256,0.047,0.471,0.162,0.559s0.359,0.082,0.617,0.008c7.154-2.082,12.385-8.684,12.385-16.512
				C52.864,26.483,45.165,18.784,35.667,18.784z"/>
			<ellipse class="st10" cx="24.808" cy="44.098" rx="0.301" ry="0.2"/>
			<ellipse class="st10" cx="25.381" cy="44.644" rx="0.335" ry="0.223"/>
			<ellipse class="st10" cx="25.905" cy="45.297" rx="0.369" ry="0.247"/>
			<ellipse class="st10" cx="26.472" cy="46.079" rx="0.404" ry="0.27"/>
			<ellipse class="st10" cx="27.109" cy="46.882" rx="0.438" ry="0.291"/>
			<ellipse class="st10" cx="28.152" cy="47.634" rx="0.474" ry="0.316"/>
			<path class="st10" d="M30.144,47.765c0,0.186-0.227,0.338-0.508,0.338s-0.51-0.152-0.508-0.338c0-0.189,0.227-0.342,0.508-0.342
				S30.146,47.577,30.144,47.765z"/>
			<ellipse class="st10" cx="31.165" cy="47.524" rx="0.543" ry="0.361"/>
		</g>
	</g>
</g>
<g id="twitter" class="st16">
	<path class="st0" d="M52.33,25.471c-1.059,0.612-3.678,0.946-3.678,0.946c1.672-1.393,2.842-3.51,2.842-3.51
		c-1,0.559-2.859,1.346-4.242,1.563c-1.273-1.602-3.197-2.622-5.35-2.622c-3.832,0-6.939,3.23-6.939,7.217
		c0,0.544,0.063,1.071,0.172,1.581c-3.543-0.013-8.034-1.286-14.014-7.663c0,0-1.186,1.709-1.281,3.714
		c-0.104,2.093,0.922,4.742,3.664,6.202c-1.592-0.177-2.268-0.58-3.609-1.187c-0.502,5.685,5.912,7.266,5.912,7.266
		c-1.154,0.123-2.082,0.184-3.307-0.062c1.428,3.768,4.17,4.615,6.176,4.756l-0.031,0.022c-2.787,3.176-9.641,2.842-9.641,2.842
		c16.502,8.823,30.448-3.697,29.825-17.119C50.932,27.54,52.33,25.471,52.33,25.471z"/>
</g>
<g id="twitter_x5F_hover" class="st16">
	<g class="st11">
		<linearGradient id="SVGID_4_" gradientUnits="userSpaceOnUse" x1="22.3154" y1="21.7881" x2="103.833" y2="103.3056">
			<stop  offset="0" style="stop-color:#000000;stop-opacity:0.5"/>
			<stop  offset="1" style="stop-color:#000000;stop-opacity:0"/>
		</linearGradient>
		<path class="st4" d="M112.33,85.471l-1.523-1.716l0.688-0.848l-60-60c-1,0.559-2.859,1.346-4.242,1.563
			c-1.273-1.602-3.197-2.622-5.35-2.622c-3.832,0-6.939,3.23-6.939,7.217c0,0.544,0.063,1.071,0.172,1.581
			c-3.543-0.013-8.034-1.286-14.014-7.663c0,0-1.186,1.709-1.281,3.714c-0.077,1.563,0.477,3.435,1.903,4.892l-0.013,0.014
			l1.221,1.221c-1.217-0.203-1.881-0.579-3.057-1.11c-0.201,2.282,0.717,3.895,1.882,5.018l2.354,2.354
			c-0.514-0.004-1.036-0.049-1.63-0.167c0.425,1.12,0.965,1.982,1.568,2.645c0.201,0.221,3.312,3.2,3.254,3.237
			c-3.188,1.987-8.318,1.738-8.318,1.738l60,60c16.502,8.823,30.447-3.697,29.824-17.119C110.932,87.54,112.33,85.471,112.33,85.471
			z"/>
		<path class="st10" d="M52.33,25.471c-1.059,0.612-3.678,0.946-3.678,0.946c1.672-1.393,2.842-3.51,2.842-3.51
			c-1,0.559-2.859,1.346-4.242,1.563c-1.273-1.602-3.197-2.622-5.35-2.622c-3.832,0-6.939,3.23-6.939,7.217
			c0,0.544,0.063,1.071,0.172,1.581c-3.543-0.013-8.034-1.286-14.014-7.663c0,0-1.186,1.709-1.281,3.714
			c-0.104,2.093,0.922,4.742,3.664,6.202c-1.592-0.177-2.268-0.58-3.609-1.187c-0.502,5.685,5.912,7.266,5.912,7.266
			c-1.154,0.123-2.082,0.184-3.307-0.062c1.428,3.768,4.17,4.615,6.176,4.756l-0.031,0.022c-2.787,3.176-9.641,2.842-9.641,2.842
			c16.502,8.823,30.448-3.697,29.825-17.119C50.932,27.54,52.33,25.471,52.33,25.471z"/>
	</g>
</g>
<g id="facebook" class="st16">
	<path class="st0" d="M50.551,19.067H20.783c-0.947,0-1.715,0.768-1.715,1.716v29.768c0,0.947,0.768,1.715,1.715,1.715h15.999
		V39.493h-4.375V35.01h4.375v-4.012c0,0.378,0,0.112,0,0c0-0.024,0-0.044,0-0.044c0-1.217,0.252-4.265,2.258-5.442
		c1.869-1.101,4.492-1.016,7.852-0.364v3.793c-4.32-0.823-5.592-0.19-5.625,2.014v4.056h5.018l-0.572,4.483h-4.445v12.772h9.285
		c0.947,0,1.715-0.768,1.715-1.715V20.783C52.266,19.835,51.498,19.067,50.551,19.067z"/>
</g>
<g id="facebook_x5F_hover" class="st16">
	<g class="st11">
		<linearGradient id="SVGID_5_" gradientUnits="userSpaceOnUse" x1="19.6235" y1="19.5171" x2="95.2991" y2="95.1927">
			<stop  offset="0" style="stop-color:#000000;stop-opacity:0.4"/>
			<stop  offset="0.0896" style="stop-color:#000000;stop-opacity:0.3641"/>
			<stop  offset="1" style="stop-color:#000000;stop-opacity:0"/>
		</linearGradient>
		<path class="st5" d="M79.148,111.343l32.299-32.299c-5.838-5.879-59.346-59.081-59.582-59.362
			c-0.314-0.377-0.787-0.615-1.314-0.615H20.783c-0.947,0-1.715,0.768-1.715,1.717v29.768c0,0.473,0.192,0.902,0.502,1.211
			C19.866,52.06,73.822,106.017,79.148,111.343z"/>
		<linearGradient id="SVGID_6_" gradientUnits="userSpaceOnUse" x1="31.0688" y1="22.5757" x2="107.9128" y2="99.4197">
			<stop  offset="0" style="stop-color:#000000;stop-opacity:0.1"/>
			<stop  offset="0.0896" style="stop-color:#000000;stop-opacity:0.091"/>
			<stop  offset="1" style="stop-color:#000000;stop-opacity:0"/>
		</linearGradient>
		<polygon class="st6" points="111.447,79.044 51.875,19.471 26.543,27.101 36.34,51.757 95.957,111.374 		"/>
		<linearGradient id="SVGID_7_" gradientUnits="userSpaceOnUse" x1="30.6006" y1="21.4346" x2="99.8287" y2="90.6627">
			<stop  offset="0" style="stop-color:#000000;stop-opacity:0.2"/>
			<stop  offset="0.0896" style="stop-color:#000000;stop-opacity:0.1821"/>
			<stop  offset="1" style="stop-color:#000000;stop-opacity:0"/>
		</linearGradient>
		<polygon class="st7" points="111.447,79.044 51.875,19.471 20.588,31.446 28.116,42.187 36.781,39.493 42.781,45.493 
			41.311,52.222 89.791,100.7 		"/>
		<path class="st10" d="M50.551,19.067H20.783c-0.947,0-1.715,0.768-1.715,1.717v29.768c0,0.947,0.768,1.715,1.715,1.715h15.999
			V39.493h-4.375V35.01h4.375v-4.012c0,0.377,0,0.111,0,0c0-0.025,0-0.045,0-0.045c0-1.217,0.252-4.264,2.258-5.441
			c1.869-1.102,4.492-1.016,7.852-0.365v3.793c-4.32-0.822-5.592-0.189-5.625,2.014v4.057h5.018l-0.572,4.483h-4.445v12.773h9.285
			c0.947,0,1.715-0.768,1.715-1.715V20.784C52.266,19.834,51.498,19.067,50.551,19.067z"/>
	</g>
</g>
<g id="vimeo" class="st16">
	<path class="st0" d="M18.621,28.909c0,0,6.888-7.921,10.245-7.921c2.168,0,3.372,1.956,4.047,3.444
		c2.066,4.563,1.818,15.323,4.132,15.323c2.311,0,6.402-8.716,5.336-10.846c-0.859-1.722-3.793-0.597-3.793-0.597
		s1.383-7.668,8.443-7.668c4.391,0,5.682,3.788,5.682,6.457c0,7.317-11.105,23.587-18.509,23.587c-1.637,0-4.354-2.143-5.769-6.887
		c-1.464-4.906-2.927-14.463-5.251-14.463c-1.205,0-2.928,1.55-2.928,1.55L18.621,28.909z"/>
</g>
<g id="vimeo_x5F_hover">
	<g>
		<linearGradient id="SVGID_8_" gradientUnits="userSpaceOnUse" x1="26.437" y1="20.9429" x2="96.9951" y2="91.5009">
			<stop  offset="0" style="stop-color:#000000;stop-opacity:0.4"/>
			<stop  offset="0.0896" style="stop-color:#000000;stop-opacity:0.3641"/>
			<stop  offset="1" style="stop-color:#000000;stop-opacity:0"/>
		</linearGradient>
		<path class="st8" d="M100.813,72.034c-0.875-0.836-48.59-48.644-49.99-49.99c-0.875-0.84-2.105-1.4-3.791-1.4
			c-7.061,0-8.443,7.668-8.443,7.668s0.041-0.015,0.104-0.035l3.543,3.542c-0.074,0.273-0.158,0.554-0.254,0.841L31.559,22.235
			l-0.028,0.012c-0.668-0.721-1.532-1.26-2.665-1.26c-3.357,0-10.245,7.922-10.245,7.922l1.636,1.979c0,0,0.028-0.023,0.049-0.043
			l6.507,6.507c0.567,2.312,1.096,4.683,1.623,6.45c0.707,2.371,1.74,4.094,2.801,5.223c1.062,1.129,48.94,48.871,50,50
			s2.148,1.664,2.967,1.664c7.404,0,18.51-16.27,18.51-23.588C102.713,75.454,102.221,73.38,100.813,72.034z"/>
		<path class="st10" d="M18.621,28.909c0,0,6.888-7.922,10.245-7.922c2.168,0,3.372,1.957,4.047,3.445
			c2.066,4.563,1.818,15.322,4.132,15.322c2.311,0,6.402-8.717,5.336-10.846c-0.859-1.723-3.793-0.598-3.793-0.598
			s1.383-7.668,8.443-7.668c4.391,0,5.682,3.789,5.682,6.457c0,7.318-11.105,23.588-18.509,23.588c-1.637,0-4.354-2.143-5.769-6.887
			c-1.464-4.906-2.927-14.463-5.251-14.463c-1.205,0-2.928,1.549-2.928,1.549L18.621,28.909z"/>
	</g>
</g>
<g id="linkedin" class="st16">
	<g class="st11">
		<circle class="st10" cx="25.051" cy="24.531" r="3.539"/>
		<rect x="22.033" y="30.671" class="st10" width="6.036" height="19.669"/>
		<path class="st10" d="M49.809,39.538c0-8.035-3.49-9.343-6.967-9.343c-3.178,0-4.74,1.319-5.986,3.003v-2.526h-6.035v19.669h6.035
			V39.946c0-2.223,0.965-4.6,3.586-4.6c3.488,0,3.492,3.954,3.492,6.659c0,0.268,0,8.336,0,8.336h5.887V39.536
			C49.82,39.536,49.809,46.972,49.809,39.538z"/>
	</g>
</g>
<g id="linkedin_x5F_hover" class="st16">
	<g class="st11">
		<linearGradient id="SVGID_9_" gradientUnits="userSpaceOnUse" x1="19.1567" y1="25.4224" x2="106.9478" y2="113.2134">
			<stop  offset="0" style="stop-color:#000000;stop-opacity:0.2"/>
			<stop  offset="0.0896" style="stop-color:#000000;stop-opacity:0.1821"/>
			<stop  offset="1" style="stop-color:#000000;stop-opacity:0"/>
		</linearGradient>
		<path class="st9" d="M109.81,99.538c0-4.41-1.051-6.795-2.574-8.047c-1.252-1.031-58.272-58.236-59.547-59.577
			c-1.313-1.383-3.082-1.72-4.847-1.72c-2.265,0-3.71,0.671-4.804,1.665l-1.182-1.188h-0.661l-8.643-8.643
			c-1.382-1.382-3.622-1.382-5.003,0c-1.383,1.383-1.383,3.623-0.001,5.004l3.638,3.639h-4.153v19.669l60,59.998h6.036v-2.625
			l2.627,2.625h6.16v-7.064l7.064,7.064l0.014-0.02c0,0.002,0,0.02,0,0.02h5.887V99.536
			C109.821,99.536,109.81,106.972,109.81,99.538z"/>
		<linearGradient id="SVGID_10_" gradientUnits="userSpaceOnUse" x1="26.1763" y1="32.5142" x2="107.6434" y2="113.9813">
			<stop  offset="0" style="stop-color:#000000;stop-opacity:0.2"/>
			<stop  offset="0.0896" style="stop-color:#000000;stop-opacity:0.1821"/>
			<stop  offset="1" style="stop-color:#000000;stop-opacity:0"/>
		</linearGradient>
		<polygon class="st13" points="109.434,112.19 96.601,125.022 22.033,50.341 27.965,30.724 34.344,37.103 47.386,31.639 
			107.235,91.491 		"/>
		
			<linearGradient id="SVGID_11_" gradientUnits="userSpaceOnUse" x1="-48.5171" y1="161.1289" x2="5.9605" y2="215.6065" gradientTransform="matrix(0.8214 -0.8214 0.7071 0.7071 -45.1088 -78.7837)">
			<stop  offset="0" style="stop-color:#000000;stop-opacity:0.2"/>
			<stop  offset="0.0896" style="stop-color:#000000;stop-opacity:0.1821"/>
			<stop  offset="1" style="stop-color:#000000;stop-opacity:0"/>
		</linearGradient>
		<polygon class="st14" points="110.317,94.571 92.657,112.231 30.821,50.341 35.351,35.226 47.386,31.639 		"/>
		<g>
			<circle class="st10" cx="25.051" cy="24.531" r="3.539"/>
			<rect x="22.033" y="30.671" class="st10" width="6.036" height="19.669"/>
			<path class="st10" d="M49.81,39.538c0-8.035-3.49-9.343-6.968-9.343c-3.178,0-4.739,1.319-5.985,3.003v-2.526h-6.036v19.669
				h6.036V39.946c0-2.223,0.964-4.6,3.585-4.6c3.488,0,3.493,3.954,3.493,6.659c0,0.268,0,8.336,0,8.336h5.887V39.536
				C49.821,39.536,49.81,46.972,49.81,39.538z"/>
		</g>
	</g>
</g>
<g id="dribble" class="st16">
	<path class="st0" d="M35.666,18.355c-9.544,0-17.312,7.766-17.312,17.312c0,9.545,7.768,17.311,17.312,17.311
		c9.545,0,17.313-7.766,17.313-17.311C52.979,26.121,45.211,18.355,35.666,18.355z M47.51,27.955c1.346,2.06,2.17,4.487,2.281,7.099
		c-1.488-0.254-3.006-0.386-4.531-0.386c-1.512,0-3.002,0.138-4.459,0.385c-0.385-0.966-0.797-1.914-1.238-2.845
		C42.406,31.019,45.078,29.594,47.51,27.955z M45.482,25.502c-2.256,1.496-4.738,2.795-7.377,3.88
		c-1.518-2.717-3.291-5.254-5.292-7.567c0.922-0.189,1.876-0.289,2.853-0.289C39.477,21.526,42.938,23.043,45.482,25.502z
		 M29.547,22.918c2.115,2.289,3.975,4.836,5.554,7.591c-1.425,0.476-2.886,0.893-4.376,1.24c-2.984,0.697-5.986,1.105-8.939,1.226
		C22.645,28.536,25.584,24.83,29.547,22.918z M21.538,36.16c3.277-0.108,6.604-0.551,9.908-1.323
		c1.756-0.409,3.472-0.913,5.146-1.49c0.383,0.797,0.744,1.608,1.082,2.434c-5.214,1.553-9.771,4.676-12.861,8.938
		C22.86,42.382,21.651,39.407,21.538,36.16z M27.131,46.931c2.715-3.932,6.865-6.797,11.644-8.172
		c0.383,1.154,0.729,2.328,1.023,3.525c0.531,2.146,0.898,4.332,1.117,6.508c-1.625,0.652-3.395,1.016-5.25,1.016
		C32.461,49.808,29.504,48.733,27.131,46.931z M43.922,47.136c-0.242-1.879-0.586-3.76-1.045-5.613
		c-0.287-1.162-0.617-2.307-0.982-3.434c1.104-0.158,2.227-0.25,3.365-0.25c1.455,0,2.898,0.137,4.309,0.396
		C48.895,41.884,46.82,45.044,43.922,47.136z"/>
</g>
<g id="dribble_x5F_hover" class="st16">
	<g class="st11">
		<linearGradient id="SVGID_12_" gradientUnits="userSpaceOnUse" x1="23.4355" y1="23.4268" x2="107.9065" y2="107.8977">
			<stop  offset="0" style="stop-color:#000000;stop-opacity:0.4"/>
			<stop  offset="0.0896" style="stop-color:#000000;stop-opacity:0.3641"/>
			<stop  offset="1" style="stop-color:#000000;stop-opacity:0"/>
		</linearGradient>
		<path class="st15" d="M47.822,23.353c-3.127-3.089-7.424-4.998-12.156-4.998c-9.544,0-17.312,7.766-17.312,17.312
			c0,4.772,1.941,9.1,5.076,12.235s56.865,56.867,60,60.002c3.135,3.133,7.463,5.074,12.236,5.074
			c9.545,0,17.313-7.766,17.313-17.311c0-4.76-1.932-9.076-5.049-12.209C104.791,80.308,51.004,26.494,47.822,23.353z"/>
		<path class="st10" d="M35.666,18.355c-9.544,0-17.312,7.766-17.312,17.312c0,9.545,7.768,17.311,17.312,17.311
			c9.545,0,17.313-7.766,17.313-17.311C52.979,26.121,45.211,18.355,35.666,18.355z M47.51,27.955
			c1.346,2.06,2.17,4.487,2.281,7.099c-1.488-0.254-3.006-0.386-4.531-0.386c-1.512,0-3.002,0.138-4.459,0.385
			c-0.385-0.966-0.797-1.914-1.238-2.845C42.406,31.019,45.078,29.594,47.51,27.955z M45.482,25.502
			c-2.256,1.496-4.738,2.795-7.377,3.88c-1.518-2.717-3.291-5.254-5.292-7.567c0.922-0.189,1.876-0.289,2.853-0.289
			C39.477,21.526,42.938,23.043,45.482,25.502z M29.547,22.918c2.115,2.289,3.975,4.836,5.554,7.591
			c-1.425,0.476-2.886,0.893-4.376,1.24c-2.984,0.697-5.986,1.105-8.939,1.226C22.645,28.536,25.584,24.83,29.547,22.918z
			 M21.538,36.16c3.277-0.108,6.604-0.551,9.908-1.323c1.756-0.409,3.472-0.913,5.146-1.49c0.383,0.797,0.744,1.608,1.082,2.434
			c-5.214,1.553-9.771,4.676-12.861,8.938C22.86,42.382,21.651,39.407,21.538,36.16z M27.131,46.931
			c2.715-3.932,6.865-6.797,11.644-8.172c0.383,1.154,0.729,2.328,1.023,3.525c0.531,2.146,0.898,4.332,1.117,6.508
			c-1.625,0.652-3.395,1.016-5.25,1.016C32.461,49.808,29.504,48.733,27.131,46.931z M43.922,47.136
			c-0.242-1.879-0.586-3.76-1.045-5.613c-0.287-1.162-0.617-2.307-0.982-3.434c1.104-0.158,2.227-0.25,3.365-0.25
			c1.455,0,2.898,0.137,4.309,0.396C48.895,41.884,46.82,45.044,43.922,47.136z"/>
	</g>
</g>
</svg>
